<svg width="55" height="56" viewBox="0 0 55 56" fill="none" xmlns="http://www.w3.org/2000/svg">
<path fill-rule="evenodd" clip-rule="evenodd" d="M27.125 55.0625C42.1057 55.0625 54.25 42.9182 54.25 27.9375C54.25 12.9568 42.1057 0.8125 27.125 0.8125C12.1443 0.8125 0 12.9568 0 27.9375C0 42.9182 12.1443 55.0625 27.125 55.0625ZM24.2124 25.0249C23.1403 26.0971 22.6042 27.3909 22.6042 28.9062C22.6042 30.4216 23.1403 31.7154 24.2124 32.7876C25.2846 33.8597 26.5784 34.3958 28.0938 34.3958C29.6091 34.3958 30.9029 33.8597 31.9751 32.7876C33.0472 31.7154 33.5833 30.4216 33.5833 28.9062C33.5833 27.3909 33.0472 26.0971 31.9751 25.0249C30.9029 23.9528 29.6091 23.4167 28.0938 23.4167C26.5784 23.4167 25.2846 23.9528 24.2124 25.0249ZM22.111 34.889C20.4669 33.245 19.6449 31.2508 19.6449 28.9062C19.6449 26.5617 20.4669 24.5675 22.111 22.9235C23.755 21.2794 25.7492 20.4574 28.0938 20.4574C30.4383 20.4574 32.4325 21.2794 34.0765 22.9235C35.7206 24.5675 36.5426 26.5617 36.5426 28.9062C36.5426 31.2508 35.7206 33.245 34.0765 34.889C32.4325 36.5331 30.4383 37.3551 28.0938 37.3551C25.7492 37.3551 23.755 36.5331 22.111 34.889ZM17.908 21.5082C17.522 21.1222 17.329 20.6576 17.329 20.1143C17.329 19.5711 17.522 19.1065 17.908 18.7205C18.294 18.3345 18.7586 18.1415 19.3018 18.1415C19.8451 18.1415 20.3097 18.3345 20.6957 18.7205C21.0817 19.1065 21.2747 19.5711 21.2747 20.1143C21.2747 20.6576 21.0817 21.1222 20.6957 21.5082C20.3097 21.8942 19.8451 22.0872 19.3018 22.0872C18.7586 22.0872 18.294 21.8942 17.908 21.5082ZM29.7342 15.386C28.7406 15.3932 28.1938 15.3967 28.0938 15.3967C27.9937 15.3967 27.4469 15.3932 26.4533 15.386C25.4598 15.3789 24.7056 15.3789 24.191 15.386C23.6763 15.3932 22.9866 15.4146 22.1217 15.4503C21.2568 15.4861 20.5206 15.5576 19.913 15.6648C19.3054 15.772 18.7943 15.9042 18.3798 16.0615C17.665 16.3474 17.036 16.762 16.4927 17.3052C15.9495 17.8485 15.5349 18.4775 15.249 19.1923C15.0917 19.6068 14.9595 20.1179 14.8523 20.7255C14.7451 21.3331 14.6736 22.0693 14.6378 22.9342C14.6021 23.7991 14.5807 24.4889 14.5735 25.0035C14.5664 25.5181 14.5664 26.2723 14.5735 27.2658C14.5807 28.2594 14.5842 28.8062 14.5842 28.9062C14.5842 29.0063 14.5807 29.5531 14.5735 30.5467C14.5664 31.5402 14.5664 32.2944 14.5735 32.809C14.5807 33.3237 14.6021 34.0134 14.6378 34.8783C14.6736 35.7432 14.7451 36.4794 14.8523 37.087C14.9595 37.6946 15.0917 38.2057 15.249 38.6202C15.5349 39.335 15.9495 39.964 16.4927 40.5073C17.036 41.0505 17.665 41.4651 18.3798 41.751C18.7943 41.9083 19.3054 42.0405 19.913 42.1477C20.5206 42.2549 21.2568 42.3264 22.1217 42.3622C22.9866 42.3979 23.6763 42.4193 24.191 42.4265C24.7056 42.4336 25.4598 42.4336 26.4533 42.4265C27.4469 42.4193 27.9937 42.4158 28.0938 42.4158C28.1938 42.4158 28.7406 42.4193 29.7342 42.4265C30.7277 42.4336 31.4819 42.4336 31.9965 42.4265C32.5112 42.4193 33.2009 42.3979 34.0658 42.3622C34.9307 42.3264 35.6669 42.2549 36.2745 42.1477C36.8821 42.0405 37.3932 41.9083 37.8077 41.751C38.5225 41.4651 39.1515 41.0505 39.6948 40.5073C40.238 39.964 40.6526 39.335 40.9385 38.6202C41.0958 38.2057 41.228 37.6946 41.3352 37.087C41.4424 36.4794 41.5139 35.7432 41.5497 34.8783C41.5854 34.0134 41.6068 33.3237 41.614 32.809C41.6211 32.2944 41.6211 31.5402 41.614 30.5467C41.6068 29.5531 41.6033 29.0063 41.6033 28.9062C41.6033 28.8062 41.6068 28.2594 41.614 27.2658C41.6211 26.2723 41.6211 25.5181 41.614 25.0035C41.6068 24.4889 41.5854 23.7991 41.5497 22.9342C41.5139 22.0693 41.4424 21.3331 41.3352 20.7255C41.228 20.1179 41.0958 19.6068 40.9385 19.1923C40.6526 18.4775 40.238 17.8485 39.6948 17.3052C39.1515 16.762 38.5225 16.3474 37.8077 16.0615C37.3932 15.9042 36.8821 15.772 36.2745 15.6648C35.6669 15.5576 34.9307 15.4861 34.0658 15.4503C33.2009 15.4146 32.5112 15.3932 31.9965 15.386C31.4819 15.3789 30.7277 15.3789 29.7342 15.386ZM11.7322 35.7039C11.6607 34.4459 11.625 32.18 11.625 28.9062C11.625 25.6325 11.6607 23.3666 11.7322 22.1086C11.8752 19.1351 12.7615 16.8335 14.3912 15.2037C16.021 13.574 18.3226 12.6877 21.2961 12.5447C22.5541 12.4732 24.82 12.4375 28.0938 12.4375C31.3675 12.4375 33.6334 12.4732 34.8914 12.5447C37.8649 12.6877 40.1665 13.574 41.7963 15.2037C43.426 16.8335 44.3123 19.1351 44.4553 22.1086C44.5268 23.3666 44.5625 25.6325 44.5625 28.9062C44.5625 32.18 44.5268 34.4459 44.4553 35.7039C44.3123 38.6774 43.426 40.979 41.7963 42.6088C40.1665 44.2385 37.8649 45.1248 34.8914 45.2678C33.6334 45.3393 31.3675 45.375 28.0938 45.375C24.82 45.375 22.5541 45.3393 21.2961 45.2678C18.3226 45.1248 16.021 44.2385 14.3912 42.6088C12.7615 40.979 11.8752 38.6774 11.7322 35.7039Z" fill="#940179"/>
</svg>
