<svg width="55" height="56" viewBox="0 0 55 56" fill="none" xmlns="http://www.w3.org/2000/svg">
<path fill-rule="evenodd" clip-rule="evenodd" d="M27.125 55.0625C42.1057 55.0625 54.25 42.9182 54.25 27.9375C54.25 12.9568 42.1057 0.8125 27.125 0.8125C12.1443 0.8125 0 12.9568 0 27.9375C0 42.9182 12.1443 55.0625 27.125 55.0625ZM33.8505 11.808C35.9597 12.6792 37.8735 13.9596 39.4802 15.5744C42.7574 18.8352 44.5625 23.1771 44.5625 27.7981C44.5625 37.3189 36.7638 45.0786 27.1951 45.0786C24.2859 45.0786 21.4293 44.3462 18.8882 42.9686L9.6875 45.375L12.141 36.4122C10.6339 33.7965 9.8277 30.8322 9.8277 27.7806C9.8277 18.2598 17.6264 10.5001 27.1951 10.5001C29.4788 10.4922 31.7413 10.9368 33.8505 11.808ZM19.8345 40.1438C22.0602 41.4516 24.6014 42.1491 27.1951 42.1491C35.1515 42.1491 41.6358 35.7147 41.6008 27.7981C41.6078 25.9098 41.2381 24.0389 40.5131 22.2938C39.7881 20.5487 38.7222 18.9642 37.3772 17.632C34.6608 14.9118 31.0331 13.4122 27.1776 13.4122C19.2212 13.4122 12.7369 19.864 12.7369 27.7806C12.7389 30.4821 13.504 33.1286 14.945 35.4182L15.2955 35.9588L13.841 41.2598L19.3088 39.8299L19.8345 40.1438ZM34.5394 31.1286C34.7999 31.2549 35.0092 31.3564 35.1165 31.4076C35.2031 31.449 35.2829 31.4856 35.3562 31.5192C35.6531 31.6554 35.8417 31.742 35.9401 31.8959C36.0628 32.0877 36.0628 32.9421 35.6948 33.9535C35.3443 34.9648 33.6093 35.889 32.7681 36.0111C32.0145 36.1157 31.0682 36.168 30.0342 35.8367C29.4033 35.6449 28.5971 35.3833 27.5631 34.93C23.408 33.1462 20.6143 29.0832 20.193 28.4705C20.1736 28.4423 20.1592 28.4214 20.15 28.4084L20.1466 28.4038C19.9234 28.1078 18.38 26.0606 18.38 23.9444C18.38 21.9816 19.3347 20.9391 19.7853 20.4472C19.823 20.4059 19.8573 20.3686 19.8871 20.3348C20.2902 19.8989 20.7459 19.7943 21.0438 19.7943H21.885C21.9154 19.7963 21.9473 19.7967 21.9803 19.7971C22.2328 19.8001 22.5565 19.804 22.8664 20.5441C23.2169 21.4159 24.0932 23.5433 24.1983 23.7526C24.3035 23.9618 24.3736 24.2059 24.2334 24.5024C24.2214 24.5262 24.2098 24.5493 24.1985 24.572C24.0773 24.8145 23.9876 24.994 23.7952 25.2173C23.7281 25.2952 23.6574 25.3803 23.5859 25.4662C23.4336 25.6494 23.278 25.8365 23.1468 25.9671C22.919 26.1938 22.7087 26.4205 22.954 26.8564C23.2169 27.2924 24.0756 28.7048 25.3725 29.8557C26.781 31.1081 28.0102 31.6338 28.6109 31.8908C28.7127 31.9343 28.7965 31.9701 28.86 32.0005C29.2981 32.2272 29.561 32.1923 29.8063 31.8959C30.0517 31.6169 30.8754 30.6404 31.1733 30.2044C31.4712 29.7859 31.7516 29.8557 32.1547 29.9952C32.4458 30.1137 33.7362 30.7392 34.5394 31.1286Z" fill="#8D0000"/>
</svg>
