<svg id="Camada_1" data-name="Camada 1" xmlns="http://www.w3.org/2000/svg" viewBox="0 0 1666.01 1666.01"><defs><style>.cls-1{fill:#fff;}.cls-2{fill:#d22a2a;}.cls-3{fill:#1d1d1b;}.cls-4{fill:#006aae;}</style></defs><path class="cls-1" d="M1612.51,1213.15l-16.8-5.89c-115.28-40.4-228.46-46.43-285.66-46.43-17.77,0-28.19.62-28.63.65l-24.3,1.46-19,128.6h34.77c145.36,0,315.11,51.31,317.16,51.93l46.19,14.14Z"/><path class="cls-1" d="M1238.92,1239.8l15.88-79.56-25.07-8.39A125.74,125.74,0,0,0,1192,1146a95.06,95.06,0,0,0-47.13,12,47.86,47.86,0,0,0,.82-7.82V1150a42.9,42.9,0,0,0-8.92-27.06l24.08,1.72c23.85,1.7,48,3.61,71.71,5.66l32.65,2.82-.07-33.1a90.62,90.62,0,0,0,12.77,15.82c17.48,17.29,39.93,27.58,66.7,30.58a125.48,125.48,0,0,0,14,.81,98.76,98.76,0,0,0,38.38-7.36l2.62,7.8,18.69,2.35c22.06,2.78,44.37,5.75,66.32,8.82l53.33,7.48-21.25-48.24c-.51-2.33-2.24-12.79-2.25-46.81v-103c0-29-2.32-50.69-7.08-66.14-5.93-19.25-19.33-35.9-39.82-49.5-19.23-12.76-44.12-19.68-74-20.56-2-.06-4.07-.09-6.07-.09-32.07,0-59.88,7.71-82.67,22.93a102.71,102.71,0,0,0-40.11,51.1l-.06-32h.51L1265,773.75h24.62l-.81-30.78c-.34-13.18,1.74-35.21,4.84-51.3l19.09-95.55-25.08-8.4c-13.06-4.37-30.73-7.08-46.1-7.08-31.77,0-57.4,11.2-76.44,28.63l2-10.35a50.2,50.2,0,0,0,5.4-21.93v-.25a46.24,46.24,0,0,0-13.06-33.38,45.39,45.39,0,0,0-32.61-13.24,47.3,47.3,0,0,0-34.19,14.45,48.74,48.74,0,0,0-13.75,33.54c0,1.21,0,2.4.08,3.58l-2.37-.35a75.52,75.52,0,0,0-10.43-.7,62.7,62.7,0,0,0-18.25,2.7H977.09l-.7,5.89-4.51-1.51c-13.06-4.37-30.72-7.08-46.1-7.08-25.65,0-47.28,7.3-64.69,19.28l3-16.58H622.88a52.63,52.63,0,0,0,.52-6.35v-.25a46.16,46.16,0,0,0-13.06-33.38,45.35,45.35,0,0,0-32.6-13.24,47.3,47.3,0,0,0-34.19,14.45,48.59,48.59,0,0,0-10.3,15.94,70.35,70.35,0,0,0-8-8c-16.14-14.16-37-18.92-54.2-20.07l.29-.32c-2.54-3.59-5-6.72-7.77-10.14l-.79-1,.23-.38a163.36,163.36,0,0,0,8.21-15.44c2.23-4.66,4.34-9.32,6.2-13.44l.2-.44.18-.44a220.13,220.13,0,0,0,10.75-31.48l.86-3.37c.47-1.8.76-3.37.95-4.41l.12-.66.08-.37.06-.38c.12-.67.26-1.33.39-2,.35-1.79.79-4,1.12-6.52l0-.3,1-8.73.38-9.29v-.74c0-2.39-.13-4.56-.24-6.48,0-.72-.08-1.43-.11-2.14l0-.94-.1-.93c-.29-2.72-.68-5.62-1.24-9.13l-.17-1.09-.26-1.07A87.81,87.81,0,0,0,484,379.55,66.9,66.9,0,0,0,479,371c-.26-.39-.52-.77-.77-1.16l-1-1.49-1.74-2.11a66.2,66.2,0,0,0-7.94-8.45l-.12-.11a50.11,50.11,0,0,0-5.72-4.68l-.42-.3c-1-.75-2.53-1.87-4.44-3l-.51-.31L452,346.9l-.36-.19c-2-1-3.69-1.73-4.83-2.2l-.59-.25-.6-.26-.62-.24a79,79,0,0,0-24.28-5.2h-.3c-1.2-.05-2.43-.08-3.64-.08a84.34,84.34,0,0,0-15.14,1.38c-.52-.5-1-.91-1.3-1.22l-.32-.3-2.93-2.75-.37-.32a104.06,104.06,0,0,0-31.07-18.62,126,126,0,0,0-45.5-8.24A140.51,140.51,0,0,0,299.38,310c-22.92,3.47-44.06,12.24-61.13,25.36l-.12.09A98.75,98.75,0,0,0,213.42,363c-1.41,2.39-2.69,4.81-3.84,7.28l-.9.49a85,85,0,0,0-26.83,23.57c-12.72,17.07-19.74,38.85-19.76,61.32V456l0,1.42c0,1.79.06,4.22.35,7,0,.31,0,.61.07.91a67.43,67.43,0,0,0,.88,7.23l.15.92c.29,1.76.68,4.14,1.39,6.87.07.27.13.55.19.82a65.94,65.94,0,0,0,2,7,95.35,95.35,0,0,0,15.21,29.25,88.09,88.09,0,0,0,17.5,17.17,95.92,95.92,0,0,0,6,28.08c.57,1.62,1.14,3,1.56,4l.56,1.31c.36.87.89,2.16,1.62,3.65,1.12,2.32,2.24,4.61,3.61,7A137.52,137.52,0,0,0,221.61,592l.14.21c1.2,1.7,2.33,3.18,3.33,4.48l1.08,1.42.4.54,4.93,6,5.24,5.78,5.78,5.77.66.58c1.34,1.19,2.71,2.36,4.09,3.52l2.38,2,1.07.76,1.34,1c1.46,1.08,3.28,2.43,5.5,3.83l.48.3.49.28,1.12.67a66.81,66.81,0,0,0,7.08,3.85l.54.26c1,.5,2,1,3.08,1.45l.87.39,4.4,1.62a74.27,74.27,0,0,0,25.13,4.33h0a73.83,73.83,0,0,0,20.58-2.9l.11,0a84.56,84.56,0,0,0,32.66-18.53l.16.1c3.81,2.52,8.26,5.44,12.89,8.28,2.61,1.6,5,3,7.32,4.39l3.58,2.07L351.6,773.75H442l13-68c20.87-1.5,39.92-7.83,55.12-18.28l-16.46,86.33h157l-.12,115.1A100.21,100.21,0,0,0,629.3,860.5c-24.95-23-55.83-34.62-91.8-34.62-.81,0-1.61,0-2.42,0-41.31.6-74.93,15.27-99.93,43.57a127.17,127.17,0,0,0-13.39,18.24c-3.79-23.11-10.47-43-20.13-60.13-16.84-29.81-40-50.77-68.75-62.3-26.08-10.42-59.16-15.7-98.33-15.7l-112.8.07v414l34.17-4.79c30.12-4.22,60.71-8.21,90.92-11.85,27.71-3.35,50.45-8.46,69.5-15.62,20.93-7.87,39.89-20.78,56.35-38.37,13.33-14.24,24.54-32,33.44-52.89,5.8,18.87,14.86,35.22,27.15,48.88a105.45,105.45,0,0,0,28.51,22.5l-2.28.38-20.29,3.66-21,110.46-9.34-63.06-24.3-1.46c-.44,0-10.87-.65-28.62-.65-57.21,0-170.39,6-285.67,46.43l-16.8,5.89L29.82,1357.61,76,1343.47c1.7-.52,171.41-51.93,317.16-51.93h12.61l-1.85,9.76,29.81,5.37c9.58,1.72,23.59,2.75,37.49,2.75,32.45,0,56.86-7.69,76.8-24.19l.09-.07c1.26-1.06,2.5-2.17,3.71-3.3,9.73,17.71,27.31,28.81,48.71,28.81a62,62,0,0,0,15.87-2.08h67.91l-.8-30.79c-.25-9.56,1.33-26.24,3.6-38L703,1160.25l-25.08-8.4a125.68,125.68,0,0,0-37.7-5.81c-21.45,0-41.07,6.47-57.06,18.54a75.42,75.42,0,0,0-18.5-31.16,72.51,72.51,0,0,0-11.14-9.37c44.2-6.24,76.93-26.76,96.77-60.41l-.06,51.81,30.91-.9c20.35-.6,41-1.06,61.46-1.39l-14.75,3L693,1300.66l28.88,6c11.12,2.31,25.58,2.79,35.76,2.79,27.5,0,48.53-5.66,64.28-17.3,1.57-1.15,3.07-2.35,4.52-3.59,10.18,13.78,25.89,22.14,44.46,22.14a61.89,61.89,0,0,0,15.86-2.08h227.94l2-10.64a54.47,54.47,0,0,0,35.64,12.72,61.89,61.89,0,0,0,15.86-2.08h67.92l-.81-30.79C1235.06,1268.24,1236.65,1251.56,1238.92,1239.8ZM1132.77,976.51l-5.25-.54h5.25ZM973.84,773.75h158l.19,98.09h.52v4.53c-21.39-33.17-57.83-51-107-51.5h-2c-41,0-74.07,13.15-98.13,39.09A117.79,117.79,0,0,0,907.67,889V869.92h.51l0-96.18h65.71ZM910.55,1146c-19.64,0-37.76,5.43-53,15.62A57,57,0,0,0,834.15,1123a66.32,66.32,0,0,0-20.61-10.47h6.74c19,0,38.17.12,57.12.34l30.37.36,0-57.28a118.23,118.23,0,0,0,16.08,23.43,116.29,116.29,0,0,0,31.72,25.25l-8.86,46.72A127.26,127.26,0,0,0,910.55,1146Zm148.52,12.84a51.4,51.4,0,0,0-27.32-12.32l4.79-25a146,146,0,0,0,43.22-7.38,43.71,43.71,0,0,0-7.39,6.11,44.42,44.42,0,0,0-12.55,30.54c0,1.21,0,2.4.09,3.58Z"/><path class="cls-2" d="M151.75,786l82.64,0c35.82,0,64.94,4.6,87.35,13.56s40.34,25.42,53.77,49.19,20.1,55.84,20,96.54c-.06,28.92-4.2,54.77-12.43,77.79s-19,41.63-32.31,55.85-28.32,24.52-45,30.79-37.54,10.9-62.54,13.91q-45.78,5.54-91.49,11.93Zm76.7,58.15q-.09,111.54-.2,223.08l13.05-1.33q26.63-2.67,41.23-13.76t23.37-35.87c5.83-16.52,8.78-39.85,8.83-70.15,0-28-3.13-49.49-9.51-64.49s-14.41-25.14-24.07-30.38-22.86-7.74-39.61-7.39l-13.09.29"/><path class="cls-2" d="M638.37,989.52q-67.75,1.71-135.47,4.69l0,12.81q-.06,31.14,9.36,41.15c6.28,6.67,14.52,9.71,24.73,9.18,21.95-1.14,34.31-14.68,37.07-40.77q32.15.58,64.3,1.46c-11.5,53-45.77,80.65-102.74,84.11-35.14,2.12-61.79-6.52-80-26.78s-27.25-48.65-27.17-85c.08-41,9.81-72.71,29.19-94.64s45.34-33,77.89-33.45c29.31-.42,53.79,8.57,73.45,26.68s29.47,51.59,29.4,100.54M570.3,954.59q.26-4.1.27-6.36Q570.65,904,537,904.72q-33.15.72-33.5,52,33.4-1.2,66.82-2.15"/><path class="cls-2" d="M680.6,785.81h72.16q-.09,151.8-.17,303.6-36.17.51-72.31,1.56.16-152.58.32-305.16"/><path class="cls-2" d="M878.16,846.28q-36.61-.09-73.21-.07v-62h73.18l0,62m-72.71,18.37q36.1,0,72.2.08.06,112.28.11,224.54-36.16-.42-72.33-.32,0-112.14,0-224.3"/><path class="cls-2" d="M1123.81,952.38q-33.52,0-67.07.25-1.58-21.09-7.74-32t-20.75-11.12Q991.89,909,992,975.81q.06,38.81,8.91,54.54t26.29,16.39c18.11.68,28-13,29.65-41.16q33.56,3.1,67.1,6.59c-5.85,60.67-39.55,88.53-101.16,85.75-33.28-1.43-58.78-12-76.46-32s-26.54-49.18-26.57-87.81q0-57.48,27.68-87.34c18.48-19.92,44.41-29.82,77.82-29.47q90.48.84,98.58,91.09"/><path class="cls-2" d="M1235.17,849.86q-36.59-.65-73.17-1.18-.06-32.22-.13-64.43H1235q.07,32.81.13,65.61m-72.62,18q36.08.67,72.15,1.5.22,118.74.46,237.47-36.06-3.12-72.15-5.69Z"/><path class="cls-2" d="M1356.81,950.86q-34.12-5.07-68.26-9.77c3.19-24,14.2-42.24,33-54.83s42.54-18.63,71.18-17.79c24.2.71,43.63,5.84,58.29,15.57s23.89,20.89,27.73,33.34,5.74,31.57,5.75,57.3v103q0,48.06,4.33,57.86-33.35-4.66-66.73-8.87-3.6-10.7-3.62-39.09c-15.76,27.53-39.24,39-70.5,35.44q-30.07-3.37-49-22.1c-12.61-12.47-18.93-29.29-19-50.71,0-26.81,9.44-46.89,28.47-60.51s53.7-20.53,104-20.16q0-4.72,0-9.45,0-25.12-5.25-35.09T1387,914.39c-18.32-.81-28.4,11.39-30.23,36.47m55.75,54.75c-20.93.64-35.87,4-44.8,9.84s-13.39,16.58-13.36,32.13q0,31.07,24,33.51c8.68.89,16.54-3,23.59-11.73s10.56-25.89,10.54-51.35q0-6.19,0-12.4"/><path d="M463.22,421.7c-.27-2.52-.64-5.06-1-7.59-1.18-5-2.51-10.09-5.05-14.79A52.22,52.22,0,0,0,453,392.5a45.52,45.52,0,0,0-5.41-5.94,26,26,0,0,0-3.06-2.59c-1.09-.78-2.14-1.62-3.27-2.31l-3.48-1.93c-1.18-.61-2.42-1.06-3.62-1.59a49.45,49.45,0,0,0-15.09-3.21,54.56,54.56,0,0,0-15,1.45,48.85,48.85,0,0,0-13.34,5.29c-.52-1-1-1.94-1.57-2.93-1.12-1.76-2.36-3.45-3.56-5.2s-2.72-3.23-4.1-4.86a26.78,26.78,0,0,0-2.26-2.26l-2.34-2.19A74.43,74.43,0,0,0,354.84,351c-16.18-6.24-34-7.54-51-5s-33.59,8.91-47.34,19.49a69.19,69.19,0,0,0-17.29,19.16,51.19,51.19,0,0,0-5.92,14.65,46.88,46.88,0,0,0-10.22,4.13,54.56,54.56,0,0,0-17.19,15.19c-9.28,12.46-13.8,28.05-13.82,43.44,0,1.93,0,3.86.22,5.78s.26,3.86.63,5.76.57,3.82,1.08,5.7a49.78,49.78,0,0,0,1.51,5.6,66,66,0,0,0,10.56,20.57,56.34,56.34,0,0,0,17.28,15,54,54,0,0,0,7.8,3.53,46.48,46.48,0,0,0-1.42,9.26,63.59,63.59,0,0,0,4.31,25.53c.35,1,.78,2,1.2,3s.81,2,1.29,3c.94,1.94,1.88,3.89,2.94,5.75a111.68,111.68,0,0,0,6.83,10.88c1.23,1.74,2.56,3.4,3.84,5.11l4,4.91,4.26,4.7,4.62,4.61c1.64,1.46,3.34,2.86,5,4.29s3.54,2.67,5.44,3.87a62.84,62.84,0,0,0,5.9,3.31c1,.49,2,1,3.08,1.47l3.23,1.19a44.93,44.93,0,0,0,27.23.86,55.93,55.93,0,0,0,22.47-13.35,70.2,70.2,0,0,0,8.37-9.5,69.13,69.13,0,0,0,4.8-7.39l4.6,3.36L359,593q5.83,4.1,11.76,8.06c4,2.62,8,5.22,12,7.73,2.27,1.38,4.54,2.74,6.83,4.09l.08,0c1.82,1.06,3.64,2.11,5.5,3.12-1.14-1.33-2.32-2.61-3.5-3.9l-.05,0q-3.06-3.36-6.18-6.62c-3.31-3.44-6.71-6.78-10.11-10.1s-6.89-6.56-10.38-9.78l-5.27-4.78-1.85-1.65.5-.88q1.29-2.22,2.69-4.4c1.87-2.89,3.81-5.74,5.88-8.48a112.18,112.18,0,0,1,13.65-15.16,75.06,75.06,0,0,1,16.21-11.5,58.76,58.76,0,0,1,9-3.74,54.12,54.12,0,0,1,7.57-1.8q3.17,2.46,6.39,4.86,4.31,3.18,8.71,6.25c3,2,5.93,4,9,5.95s6.14,3.8,9.36,5.53c-2.11-3-4.36-5.8-6.62-8.62s-4.64-5.5-7-8.18-4.81-5.3-7.27-7.89l-3.41-3.54h0a12.82,12.82,0,0,0,1.67-.91c.27-.16.55-.32.81-.5l.74-.57,1.48-1.17,1.32-1.29c.44-.44.91-.86,1.32-1.32l1.19-1.4a35.83,35.83,0,0,0,2.27-2.88c.71-1,1.43-2,2.11-3l1.93-3.08a135,135,0,0,0,6.74-12.72c2.06-4.3,4-8.62,6-13a189.6,189.6,0,0,0,9.37-27.32l.9-3.53c.31-1.17.48-2.39.73-3.59.43-2.41,1-4.79,1.3-7.24l.84-7.36.3-7.48C463.52,426.75,463.33,424.22,463.22,421.7ZM451,435.85l-.68,6.65c-.22,2.22-.67,4.45-1,6.67-.19,1.11-.31,2.23-.56,3.34l-.71,3.33-.69,3.34c-.22,1.11-.46,2.22-.77,3.33l-1.71,6.65c-.51,2.23-1.29,4.41-1.92,6.62s-1.26,4.43-2,6.64c-1.5,4.4-2.94,8.84-4.4,13.26s-2.93,8.81-4.66,13.05l-1.29,3.19-1.46,3.1a30.7,30.7,0,0,1-1.56,3l-.82,1.49c-.28.5-.6.94-.91,1.42l-.93,1.42L424,523.65l-.53.65a7.94,7.94,0,0,1-.59.57,11.32,11.32,0,0,1-1.23,1.08l-.41.29c-.91-.93-1.83-1.86-2.76-2.77L417,522l-2.56.14a61.43,61.43,0,0,0-22.86,6,79.2,79.2,0,0,0-19.24,13.1,106.78,106.78,0,0,0-15,17.17c-2.19,3.09-4.25,6.25-6.12,9.53-.94,1.64-1.85,3.29-2.72,5l-1.28,2.55c-.43.88-.79,1.69-1.23,2.72l-1.77,4.11,3.33,2.44.23.17a103.93,103.93,0,0,1-16,12.85c-6.63,4.25-13.73,7.45-20.94,8.68a40.15,40.15,0,0,1-10.71.29A38.12,38.12,0,0,1,289.78,604c-.83-.36-1.65-.72-2.48-1.06s-1.6-.85-2.41-1.27a50.67,50.67,0,0,1-4.69-2.86c-1.53-1-3-2.21-4.5-3.3-1.42-1.25-2.86-2.47-4.27-3.74l-4.1-4-4-4.34L259.38,579l-3.72-4.55A118.28,118.28,0,0,1,242.92,555a68.64,68.64,0,0,1-7.13-21.88,54.28,54.28,0,0,1-.47-7.78,49,49,0,0,0,9.24,1.59,89.41,89.41,0,0,1-9.08-4.92,40.44,40.44,0,0,1,2.93-12.29,31.14,31.14,0,0,0-6,10.28,62.67,62.67,0,0,1-5.64-4.41,61.2,61.2,0,0,1-12.73-15.47c-6.67-11.46-9.7-24.76-9.69-38A78.44,78.44,0,0,1,214,424a58.86,58.86,0,0,1,12.55-15.55,52.49,52.49,0,0,1,6-4.56,41.6,41.6,0,0,0-.3,5c.8-1.94,1.36-3.9,2.21-5.74l.29-.6a67.71,67.71,0,0,1,9.8-4.73,42.62,42.62,0,0,0-7.85.77l.49-.81a48.94,48.94,0,0,1,3.25-5l1.73-2.37c.63-.76,1.3-1.48,1.94-2.22A76.76,76.76,0,0,1,262,373.44c13.26-8,28.34-12.94,43.67-15.25s31.13-1.91,46.13,2a85.46,85.46,0,0,1,21.56,8.88c1.64,1.07,3.4,2,5,3.2s3.24,2.33,4.8,3.59,3.07,2.62,4.57,4l2.24,2.25c-.89.58-1.76,1.17-2.63,1.75s-1.91,1.53-2.84,2.29-1.71,1.74-2.54,2.59-1.47,1.91-2.16,2.86c7.28-6.12,16.41-8.66,25.25-9.33a54.78,54.78,0,0,1,13.14.61,45.38,45.38,0,0,1,12,4,33.58,33.58,0,0,1,9.76,7.32,42,42,0,0,1,3.78,4.72,40.85,40.85,0,0,1,2.87,5.39c3.39,7.47,4.67,16.1,4.59,24.86Z"/><path class="cls-3" d="M421.56,572.41c10.66-2.43,25.89-3.88,40.26-3.88,15.23,0,32.68,3.18,43.81,13.06,9.61,8.09,14.8,19.92,14.8,34.17a64.76,64.76,0,0,1-22.53,49.71c-13.61,11.56-33.39,17-52.73,17a105.08,105.08,0,0,1-14.88-1.09l-13.12,68.79H387.83Zm13.37,84.15a65,65,0,0,0,13.85,1.3c26.3,0,41.46-19.39,41.46-39.69,0-17.66-11.46-25.41-28.49-25.41-6.56,0-11.7.51-14.9,1.35Z"/><path class="cls-3" d="M529.89,750.16l24.87-130.41h30L559.84,750.16Zm29.9-165.22c.11-10.26,8-18.41,18-18.41,9.73,0,15.77,6.83,15.67,16.29-.23,11.4-8.5,18.35-18.5,18.35C565.51,601.17,559.63,594.47,559.79,584.94Z"/><path class="cls-3" d="M595.41,731.44l49.52-58.89A316.35,316.35,0,0,1,671.31,645l.28-.71h-55l4.85-24.57h89.73l-3.55,19.92L659,697.34c-11.2,13.07-17.83,19.82-26.32,27.6l-.08.66H692.7l-4.84,24.56h-95.6Z"/><path class="cls-3" d="M712.47,731.44,762,672.55A316.35,316.35,0,0,1,788.37,645l.28-.71h-55l4.85-24.57h89.73l-3.55,19.92L776,697.34c-11.2,13.07-17.83,19.82-26.32,27.6l-.08.66h60.12l-4.85,24.56H709.32Z"/><path class="cls-3" d="M915.77,750.16c.17-7.55,1-17,2-27.5h-.68c-12.48,22.7-28.21,30.21-42.85,30.21-21.46,0-35-17.22-35-42.47,0-43.08,27.87-93.35,86.5-93.35,13.32,0,27.46,2.48,36.58,5.53L948.44,692.3c-3.58,18.47-5.79,42.72-5.39,57.86Zm13-108.75a43.5,43.5,0,0,0-11.12-1.28c-27.72,0-47.48,36.41-47.64,64.15-.11,13.62,4.22,24.07,16.32,24.07,13.53,0,29.21-18.56,35-49.2Z"/><path class="cls-3" d="M981.52,750.16,997.2,667.4c3.32-17.72,5.12-36.19,6.5-47.65h26c-.72,8.3-1.45,16.65-2.66,26.11h.82c8.92-17.19,22.36-28.81,38.32-28.81a43.84,43.84,0,0,1,6.13.4l-5.81,29.66a43.9,43.9,0,0,0-5.49-.32c-20.22,0-34.27,21.77-39.08,47.44l-10.49,55.93Z"/><path class="cls-3" d="M1079,750.16l24.87-130.41h29.95L1109,750.16Zm29.9-165.22c.11-10.26,8-18.41,17.95-18.41,9.73,0,15.77,6.83,15.67,16.29-.23,11.4-8.5,18.35-18.5,18.35C1114.65,601.17,1108.76,594.47,1108.92,584.94Z"/><path class="cls-3" d="M1231.59,750.16c.16-7.55,1-17,2-27.5h-.68c-12.48,22.7-28.21,30.21-42.85,30.21-21.47,0-35-17.22-35-42.47,0-43.08,27.87-93.35,86.5-93.35,13.32,0,27.46,2.48,36.58,5.53l-13.92,69.72c-3.58,18.47-5.79,42.72-5.4,57.86Zm13-108.75a43.5,43.5,0,0,0-11.12-1.28c-27.72,0-47.48,36.41-47.64,64.15-.11,13.62,4.21,24.07,16.32,24.07,13.53,0,29.21-18.56,35-49.2Z"/><path class="cls-4" d="M67.24,1321.19s174-53.24,325.93-53.24l-10.39-70.12S232.15,1188.74,80.22,1242Z"/><path class="cls-4" d="M1598.77,1321.19s-174-53.24-325.93-53.24l10.39-70.12s150.63-9.09,302.56,44.15Z"/><path class="cls-3" d="M464.84,1147.82a187.29,187.29,0,0,1,32.89-2.75c20.4,0,35.82,5.64,45.54,15.78,8.85,8.79,14.07,21.6,14.08,39.17,0,28.52-11.8,54.62-28.45,68.51-14.73,12.19-32.76,17.3-57.67,17.3-12.64,0-24.88-1-32.18-2.28Zm.53,118.09a94.25,94.25,0,0,0,12.86.81c16,0,29.46-6,38.78-17.46,10-12.1,15.7-30,15.7-49.43,0-21.31-10.21-36.08-35.11-36.08a67.65,67.65,0,0,0-12.86,1Z"/><path class="cls-3" d="M632.52,1285c.12-5.83.8-13.1,1.55-21.19h-.52c-9.61,17.49-21.73,23.27-33,23.27-16.54,0-26.95-13.26-26.95-32.71,0-33.2,21.47-71.92,66.64-71.92a96.47,96.47,0,0,1,28.18,4.26l-10.73,53.71c-2.75,14.23-4.46,32.91-4.15,44.58Zm10-83.79a33.67,33.67,0,0,0-8.57-1c-21.35,0-36.57,28-36.7,49.42-.08,10.49,3.25,18.54,12.58,18.54,10.42,0,22.5-14.3,27-37.9Z"/><path class="cls-3" d="M753.6,1147.94a156.88,156.88,0,0,1,30.78-2.87c13.29,0,23.89,2.21,32,8.5a27.46,27.46,0,0,1,11.87,23.17c0,17.31-13,29.92-28.4,34.38v.57c13.38,4.23,21.33,15.69,21.29,30.46,0,14.19-7.44,25.2-17,32.24-10.88,8-26.47,11.44-46.48,11.44-13.29,0-23.39-.86-29.68-2.16Zm-.12,118.87a71.27,71.27,0,0,0,11.07.7c17.77,0,32.56-8.72,32.56-26.52,0-14.28-10.83-20.78-25.27-20.78h-9.5ZM765.86,1203h9.23c17.36,0,29.71-9,29.71-23.5,0-10.75-7.6-16.55-20.28-16.55-4.8,0-8.92.3-11.27,1Z"/><path class="cls-3" d="M902.84,1285c.13-5.83.81-13.1,1.56-21.19h-.53c-9.61,17.49-21.73,23.27-33,23.27-16.54,0-27-13.26-27-32.71,0-33.2,21.47-71.92,66.63-71.92a96.54,96.54,0,0,1,28.19,4.26L928,1240.42c-2.76,14.23-4.46,32.91-4.16,44.58Zm10-83.79a33.67,33.67,0,0,0-8.57-1c-21.35,0-36.57,28-36.7,49.42-.08,10.49,3.25,18.54,12.57,18.54,10.43,0,22.5-14.3,27-37.9Z"/><path class="cls-3" d="M953.08,1285l27.57-145.41h23.12L992.36,1199l.41.06c7.84-10.14,18.19-16.61,31.14-16.61,13.34,0,22.92,8.72,22.92,25.32a102,102,0,0,1-1.89,17.83l-11.28,59.4h-23.07l11.07-58.27a73.66,73.66,0,0,0,1.28-13.06c0-7.11-3.1-12.3-11-12.3-10.5,0-22.53,13.21-26.24,32.84L976.15,1285Z"/><path class="cls-3" d="M1066.78,1285l19.16-100.47H1109L1089.85,1285Zm23-127.29a14,14,0,0,1,13.82-14.18c7.5,0,12.15,5.26,12.07,12.55-.17,8.78-6.55,14.13-14.25,14.13C1094.22,1170.21,1089.69,1165.06,1089.82,1157.71Z"/><path class="cls-3" d="M1184.31,1285c.13-5.83.81-13.1,1.56-21.19h-.52c-9.62,17.49-21.74,23.27-33,23.27-16.54,0-26.95-13.26-26.95-32.71,0-33.2,21.47-71.92,66.63-71.92a96.54,96.54,0,0,1,28.19,4.26l-10.73,53.71c-2.76,14.23-4.46,32.91-4.16,44.58Zm10-83.79a33.67,33.67,0,0,0-8.57-1c-21.35,0-36.57,28-36.7,49.42-.08,10.49,3.25,18.54,12.57,18.54,10.43,0,22.5-14.3,27-37.9Z"/></svg>