<svg id="Camada_1" data-name="Camada 1" xmlns="http://www.w3.org/2000/svg" viewBox="0 0 2000 2000"><defs><style>.cls-1{fill:#fff;}.cls-2{fill:none;}.cls-3{fill:#d3292b;}.cls-4{fill:#006aaf;}</style></defs><path class="cls-1" d="M1867,1381.65c-.66-3.57-2.52-17.11-2.52-56.63V1195.47c0-37.28-3-65.2-9.23-85.35-8-25.9-25.83-48.19-53.06-66.26-25.36-16.83-58-25.94-97-27.09-2.62-.08-5.26-.12-7.84-.12-41.83,0-78.2,10.12-108.11,30.09a137.64,137.64,0,0,0-38.94,39v-1.35l.64,0-.33-173.63H1368.34l.28,146.47q-4-4.38-8.34-8.41c-29.06-26.86-68.81-40.72-118.07-41.17h-2.59c-53.79,0-97.14,17.33-128.86,51.53q-4.63,5-8.81,10.4l-.07-158.81H919.57v2l-156.34,0L763.06,1070a126.42,126.42,0,0,0-14.21-15.52c-32.79-30.19-73.32-45.5-120.48-45.5-1,0-2.09,0-3.15,0-54.13.79-98.26,20.08-131.13,57.31q-3.85,4.37-7.39,9c-5.14-22.58-12.69-42.63-22.74-60.42-22-39-52.35-66.44-90.17-81.59C340.11,919.84,297.58,913,247.38,913l-149.28.1v536.6l51.42-7.21c37.82-5.3,76.25-10.31,114.2-14.89,35.46-4.28,64.62-10.84,89.13-20.06,27.4-10.3,52.19-27.17,73.68-50.13,13.7-14.63,25.65-32.09,35.76-52.11a164.08,164.08,0,0,0,29.49,46.94c29.22,32.56,70.08,49.07,121.45,49.07h0c5,0,10.23-.16,15.47-.48,45.38-2.75,83-16.07,111.85-39.59a154.58,154.58,0,0,0,22.22-22.3l0,49.25,46.52-1.35c29.91-.87,60.28-1.53,90.27-1.95l33-.46,33-.1q9.27,0,18.56,0c23.78,0,47.91.14,71.72.42l45.72.55,0-54q3.45,4.56,7.22,8.83c30.47,34.46,73.55,53.12,127.95,55.45,4.17.19,8.34.28,12.36.28h0c47.08,0,85.09-13,113-38.64q4.13-3.78,7.9-7.91l.1,47.27,41.86,3c29.92,2.14,60.22,4.53,90.07,7.11l49.14,4.25,0-28c1.09,1.17,2.2,2.33,3.35,3.47,23.21,22.94,52.92,36.59,88.29,40.55a165,165,0,0,0,18.49,1.07,134.56,134.56,0,0,0,43.7-7l2.31,6.87,28.13,3.54c27.66,3.48,55.69,7.21,83.3,11.08l80.26,11.25Zm-316.44-185.17v-.74l.59.09C1551,1196,1550.79,1196.27,1550.59,1196.48Z"/><path class="cls-2" d="M670,1162.21q.1-55.57-42.24-54.72-41.69.91-42.13,65.43,42-1.51,84-2.71C669.83,1166.78,670,1164.11,670,1162.21Z"/><path class="cls-2" d="M337.11,1247.83c7.33-20.77,11-50.12,11.1-88.22.06-35.26-3.93-62.24-12-81.1s-18.12-31.62-30.27-38.22-28.75-9.72-49.82-9.28l-16.45.35q-.12,140.28-.26,280.56,8.2-.86,16.42-1.67,33.47-3.37,51.85-17.31T337.11,1247.83Z"/><path class="cls-2" d="M1655.7,1287.15q.06,39.07,30.24,42.14c10.91,1.12,20.8-3.74,29.67-14.74s13.28-32.56,13.25-64.58q0-7.8,0-15.59c-26.32.8-45.11,5-56.34,12.37S1655.68,1267.6,1655.7,1287.15Z"/><path class="cls-3" d="M337,1365.29q31.49-11.83,56.6-38.72t40.64-70.24c10.35-28.95,15.56-61.46,15.63-97.83.09-51.18-8.3-91.49-25.19-121.4S385.22,986.52,357,975.23s-64.8-17.07-109.85-17.06l-103.93.07v439.55q57.48-8.05,115.06-15Q305.47,1377.09,337,1365.29Zm-97.51-53.37q.13-140.28.26-280.56l16.45-.35c21.07-.44,37.68,2.69,49.82,9.28s22.23,19.36,30.27,38.22,12,45.84,12,81.1c-.06,38.1-3.77,67.45-11.1,88.22s-17.13,35.82-29.39,45.11-29.54,15.06-51.85,17.31Q247.67,1311.07,239.45,1311.92Z"/><path class="cls-3" d="M626,1355.78c71.64-4.35,114.74-39.1,129.21-105.78q-40.44-1.1-80.86-1.83c-3.48,32.81-19,49.84-46.63,51.27-12.84.66-23.21-3.15-31.1-11.54s-11.82-25.64-11.77-51.75l0-16.12q85.15-3.75,170.37-5.9.13-92.33-37-126.43c-24.72-22.78-55.51-34.08-92.37-33.55-40.94.6-73.59,14.47-98,42.07s-36.61,67.46-36.71,119c-.09,45.68,11.29,81.43,34.17,106.86S581.78,1358.45,626,1355.78Zm1.74-248.29q42.33-.91,42.24,54.72c0,1.9-.12,4.57-.33,8q-42,1.18-84,2.71Q586,1108.45,627.71,1107.49Z"/><path class="cls-3" d="M807.93,1341.72q45.47-1.32,90.94-2L899.08,958H808.34Q808.13,1149.84,807.93,1341.72Z"/><path class="cls-3" d="M1056.74,956h-92q0,39,0,77.92,46,0,92.07.09Q1056.76,995,1056.74,956Z"/><path class="cls-3" d="M965.32,1339.19q45.48-.15,91,.4-.06-141.19-.13-282.39-45.4-.14-90.8-.1Z"/><path class="cls-3" d="M1281.47,1234.34c-2.09,35.43-14.52,52.61-37.29,51.76q-21.92-.81-33.06-20.62t-11.2-68.59q-.11-84,45.62-83.33,18.35.33,26.1,14t9.72,40.19q42.2-.3,84.36-.31-10.2-113.45-124-114.56c-42-.43-74.63,12-97.87,37.07s-34.84,61.65-34.81,109.84c0,48.58,11.17,85.28,33.41,110.43s54.31,38.46,96.17,40.25c77.48,3.5,119.86-31.53,127.22-107.84Q1323.68,1238.24,1281.47,1234.34Z"/><path class="cls-3" d="M1415,1354.51q45.39,3.24,90.75,7.16-.3-149.33-.59-298.64-45.36-1-90.74-1.89Q1414.73,1207.83,1415,1354.51Z"/><path class="cls-3" d="M1505.61,956h-92q.09,40.51.16,81,46,.66,92,1.48Q1505.68,997.24,1505.61,956Z"/><path class="cls-3" d="M1572.89,1153.23q42.94,5.91,85.85,12.29c2.3-31.54,15-46.88,38-45.87q18.88.86,25.45,13.36t6.6,44.12V1189c-63.26-.46-106.88,8.3-130.81,25.36s-35.85,42.37-35.79,76.09c0,26.94,8,48.09,23.85,63.78s36.38,25,61.6,27.79c39.31,4.44,68.84-10,88.66-44.57q0,35.73,4.55,49.16,42,5.28,83.93,11.16-5.44-12.36-5.45-72.77,0-64.77,0-129.54c0-32.36-2.41-56.43-7.23-72.07s-16.44-29.69-34.87-41.93-42.87-18.68-73.31-19.58c-36-1.05-65.85,6.58-89.51,22.38S1576.91,1123,1572.89,1153.23Zm156,96.74q0,48-13.25,64.58c-8.87,11-18.76,15.86-29.67,14.74q-30.18-3.12-30.24-42.14,0-29.33,16.81-40.4c11.23-7.39,30-11.57,56.34-12.37Q1728.85,1242.17,1728.86,1250Z"/><path class="cls-1" d="M1680.84,786.59c-5-7.91-14.07-11.92-26.83-11.92a79.45,79.45,0,0,0-25.68,4.42c-8.44,2.88-15,5.93-20.06,9.32l-1.46,1,7.11-13.36h-3.83c.52-.29,1-.61,1.56-.94a26.16,26.16,0,0,0,9-9.71,17.93,17.93,0,0,0,1.57-14.17c-2-6.44-7.84-10.43-15.11-10.43a22.82,22.82,0,0,0-13.45,4.53,27,27,0,0,0-8.32,9.2c-4,7.43-2.16,13.25-.74,16.06a15.09,15.09,0,0,0,4.63,5.46H1575.2l-.21.39-2-.66a20.64,20.64,0,0,0-3.53-.79,25.63,25.63,0,0,0-3.78-.29,59.19,59.19,0,0,0-18.6,3.25l.5-1.9h-35.15l-2.56,7.7c-.22.52-1.2,2.67-5.13,10.28l-29.8,56-4.74.86,18.29-34.4c7.79-14.64,5.09-24.39,1.5-29.92-5-7.91-14.06-11.92-26.82-11.92a79.45,79.45,0,0,0-25.68,4.42,107.79,107.79,0,0,0-13.13,5.36l4.48-8.43h-165.3c.52-.29,1-.61,1.56-.94a26.16,26.16,0,0,0,9-9.71,17.92,17.92,0,0,0,1.56-14.17c-2-6.44-7.84-10.43-15.1-10.43a22.85,22.85,0,0,0-13.46,4.53,27,27,0,0,0-8.31,9.2,20.56,20.56,0,0,0-2.06,5.65,25.9,25.9,0,0,0-2.88-7.47c-5.81-10.06-17.41-15.15-34.49-15.15h-40.55l-78.17,147h39.67l27.69-52.09h6.48c17,0,32.6-4.19,46.25-12.47,2.43-1.47,4.74-3,6.94-4.59L1171,884.54h201.3l5.51-10.36.24.45c3,5.17,9.59,11.33,23.84,11.33a64.42,64.42,0,0,0,22.68-4.42q3-1.14,6.14-2.6a18,18,0,0,0,14.81,7,43,43,0,0,0,11.24-1.63l-.11.21h38.72l34.16-64.25a47.52,47.52,0,0,1,9.72-6.06,32.47,32.47,0,0,1,14.81-3.51,13.46,13.46,0,0,1,2.33.14l.26.08-39.14,73.6h38.72l9.93-18.68a20.22,20.22,0,0,0,2.7,8.77c3,5.17,9.58,11.33,23.84,11.33a64.5,64.5,0,0,0,22.68-4.42q3-1.14,6.14-2.6a18,18,0,0,0,14.81,7,43.17,43.17,0,0,0,11.45-1.68,40.41,40.41,0,0,0,11-4.71l4.23-2.69,5.15-27.25-7.07,1.28,18.29-34.4C1687.12,801.87,1684.42,792.11,1680.84,786.59Zm-226.4,21.2-.48.93-.36.66q-4.23.21-8.37.66A35.09,35.09,0,0,1,1454.44,807.79ZM1242.75,776h-6.56a41.92,41.92,0,0,0,1.2-7.2,15,15,0,0,0,.73,1.74A15.19,15.19,0,0,0,1242.75,776Zm-12.32,69.55,18.48-34.78h27.82Zm72.26,4.19H1276.8l51.26-39h26.53Zm52,0,58.78-44.68.18-.35,2.92,12a85.29,85.29,0,0,0-15.61,8,61,61,0,0,0-20.75,22.6c-.45.83-.85,1.66-1.24,2.47Zm290.58-42-.48.93-.35.66c-2.82.14-5.62.36-8.38.66A35.09,35.09,0,0,1,1645.24,807.79Zm-42.63-10.5,4.74,19.41a85.29,85.29,0,0,0-15.61,8,64.84,64.84,0,0,0-6.11,4.53Z"/><path class="cls-2" d="M1173.82,759.38l-27.23,51.22h13a55.92,55.92,0,0,0,27.93-7.19,47.62,47.62,0,0,0,19.19-19.29q6.81-12.81,2.75-18.77t-20.34-6Z"/><path class="cls-2" d="M1405.41,850.36q-3.57,6.72-1.58,9.88c1.33,2.1,4.11,3.16,8.32,3.16a48.7,48.7,0,0,0,17.23-3.56,80.15,80.15,0,0,0,14-6.56L1457,827.75q-17.91.24-31.84,6T1405.41,850.36Z"/><path class="cls-2" d="M1596.22,850.36q-3.59,6.72-1.58,9.88c1.33,2.1,4.1,3.16,8.32,3.16a48.65,48.65,0,0,0,17.22-3.56,80.15,80.15,0,0,0,14-6.56l13.58-25.53q-17.91.24-31.85,6T1596.22,850.36Z"/><path d="M1165.85,749.1,1100,873h13.44l27.7-52.09h13.43q22.45,0,40.24-10.79T1220.2,785q9.12-17.15,3.7-26.52t-24.46-9.37Zm43.65,16.25q4.05,6-2.75,18.77a47.62,47.62,0,0,1-19.19,19.29,55.92,55.92,0,0,1-27.93,7.19h-13l27.23-51.22h15.34Q1205.44,759.38,1209.5,765.35Z"/><path d="M1252.57,767.52a11.78,11.78,0,0,0,6.29-2.17,14.62,14.62,0,0,0,5.09-5.42,6.61,6.61,0,0,0,.76-5.21c-.5-1.58-1.86-2.38-4.07-2.38a11.48,11.48,0,0,0-6.72,2.38,15.57,15.57,0,0,0-4.83,5.21q-1.72,3.24-.62,5.42C1249.2,766.8,1250.56,767.52,1252.57,767.52Z"/><polygon points="1202.75 872.96 1248.13 787.6 1235.65 787.6 1190.26 872.96 1202.75 872.96"/><polygon points="1311.43 799.22 1226.7 862.84 1221.32 872.96 1287.48 872.96 1293.66 861.34 1242.44 861.34 1326.55 797.4 1331.76 787.6 1269.71 787.6 1263.54 799.22 1311.43 799.22"/><polygon points="1304.56 862.84 1299.18 872.96 1365.33 872.96 1371.51 861.34 1320.29 861.34 1404.4 797.4 1409.62 787.6 1347.57 787.6 1341.39 799.22 1389.29 799.22 1304.56 862.84"/><path d="M1439.64,799.81a46.34,46.34,0,0,1,18-3.75q7.18,0,9.64,3.79t-3.14,14.3l-3.53,6.64a124.4,124.4,0,0,0-28.76,3.25,77.13,77.13,0,0,0-24.63,10.35,49.18,49.18,0,0,0-16.86,18.34q-5.6,10.51-2.35,16.08t13.83,5.57a52.67,52.67,0,0,0,18.6-3.67,93,93,0,0,0,20.16-11h.48q-3.51,8.07-1.73,11.34t6.12,3.28a31.82,31.82,0,0,0,8.38-1.26,28.73,28.73,0,0,0,7.82-3.32l1.09-5.77a32.39,32.39,0,0,1-5.75.55q-4,0-4.08-2.88t5.12-12.61l20.22-38q6.21-11.7,2-18.26t-17.06-6.56a67.6,67.6,0,0,0-21.94,3.8q-11.1,3.8-17.36,8l2.06,8.46A101.32,101.32,0,0,1,1439.64,799.81Zm3.74,53.47a80.15,80.15,0,0,1-14,6.56,48.7,48.7,0,0,1-17.23,3.56c-4.21,0-7-1.06-8.32-3.16s-.8-5.4,1.58-9.88q5.76-10.83,19.7-16.6t31.84-6Z"/><path d="M1488.4,873l31.77-59.75q4.41-4.59,13.89-9.33a44.11,44.11,0,0,1,20-4.74,20,20,0,0,1,5.67.63l9.62-13a9.61,9.61,0,0,0-1.53-.32,14.93,14.93,0,0,0-2.09-.16,51.52,51.52,0,0,0-19.3,4.27,96.27,96.27,0,0,0-20.4,11.54q2.94-5.53,4.49-9a37.79,37.79,0,0,0,2.09-5.49h-11.77q-.54,1.57-5.79,11.77L1475.91,873Z"/><polygon points="1549.26 872.96 1594.65 787.6 1582.16 787.6 1536.77 872.96 1549.26 872.96"/><path d="M1599.08,767.52a11.72,11.72,0,0,0,6.29-2.17,14.57,14.57,0,0,0,5.1-5.42,6.61,6.61,0,0,0,.75-5.21c-.5-1.58-1.86-2.38-4.07-2.38a11.48,11.48,0,0,0-6.72,2.38,15.43,15.43,0,0,0-4.82,5.21q-1.72,3.24-.63,5.42T1599.08,767.52Z"/><path d="M1630.44,799.81a46.34,46.34,0,0,1,18-3.75q7.2,0,9.65,3.79t-3.15,14.3l-3.53,6.64A124.31,124.31,0,0,0,1622.7,824a76.94,76.94,0,0,0-24.63,10.35,49.13,49.13,0,0,0-16.87,18.34q-5.58,10.51-2.35,16.08t13.84,5.57a52.62,52.62,0,0,0,18.59-3.67,93.26,93.26,0,0,0,20.17-11h.47q-3.5,8.07-1.72,11.34t6.12,3.28a31.87,31.87,0,0,0,8.38-1.26,28.66,28.66,0,0,0,7.81-3.32l1.09-5.77a32.3,32.3,0,0,1-5.75.55c-2.68,0-4-1-4.08-2.88s1.68-6.13,5.13-12.61l20.21-38q6.23-11.7,2-18.26T1654,786.25a67.5,67.5,0,0,0-21.93,3.8q-11.11,3.8-17.37,8l2.06,8.46A101.93,101.93,0,0,1,1630.44,799.81Zm3.74,53.47a80.15,80.15,0,0,1-14,6.56A48.65,48.65,0,0,1,1603,863.4c-4.22,0-7-1.06-8.32-3.16s-.81-5.4,1.58-9.88q5.74-10.83,19.69-16.6t31.85-6Z"/><path class="cls-1" d="M1207.35,477.09c-.09-1.52-.17-3-.24-4.56v-.22c-.45-4.18-1.07-8.76-2-14.39l0-.13,0-.12c-2.2-9.35-4.76-19.24-9.72-28.45a73.35,73.35,0,0,0-6.07-10.3c-.63-.94-1.26-1.88-1.87-2.83l-.11-.17-1.43-1.74a75.71,75.71,0,0,0-9.21-9.92l-1-.88a40.17,40.17,0,0,0-5.07-4.21l-1.89-1.37c-1.4-1-2.85-2.11-4.43-3.07L1157.6,391c-1.61-.84-3.23-1.51-4.8-2.16l-2.18-.91-.14-.06a95.53,95.53,0,0,0-29.35-6.25c-1.48-.07-3-.1-4.46-.1a106.53,106.53,0,0,0-24.53,2.92,97.67,97.67,0,0,0-22.79,8.51l-1.31-2.46-.07-.11c-1.44-2.28-3-4.49-4.49-6.63-.75-1.07-1.5-2.14-2.3-3.31-1.66-2.28-3.51-4.37-5.3-6.39-.85-1-1.7-1.92-2.47-2.84a31.92,31.92,0,0,0-3.28-3.37c-.42-.38-.84-.77-1.3-1.22l-4.47-4.18A141.93,141.93,0,0,0,1002,337.12a183.33,183.33,0,0,0-66.24-11.89,210.78,210.78,0,0,0-31,2.31c-34.12,5.16-65.32,18-90.25,37.18-14.06,10.92-25.24,23.32-33.25,36.85a99.46,99.46,0,0,0-11,26.43,90,90,0,0,0-17.9,7.47A105.91,105.91,0,0,0,719,464.88c-17.1,22.95-26.53,52.57-26.57,83.5,0,.83,0,1.67,0,2.5,0,2.81.08,5.71.39,8.57.09.93.16,1.85.24,2.77a71.93,71.93,0,0,0,1,8.29c.15.88.3,1.77.44,2.65a81.46,81.46,0,0,0,1.64,8.26c.21.84.4,1.69.6,2.53a71.75,71.75,0,0,0,2.3,8.24,126.71,126.71,0,0,0,20.33,39.52,109.43,109.43,0,0,0,33.42,29A102.57,102.57,0,0,0,765,666.45a92.18,92.18,0,0,0-2,15c-.84,15.77,2,32.32,8.25,49.12.6,1.73,1.29,3.37,2,5l.4.94c.27.62.53,1.25.79,1.89.52,1.25,1.06,2.56,1.68,3.79,1.64,3.41,3.5,7.27,5.56,10.89a207.92,207.92,0,0,0,13,20.73c1.58,2.25,3.25,4.44,4.87,6.55.79,1,1.59,2.07,2.37,3.12l7.72,9.39,8.1,8.93,8.7,8.69.15.14c2.22,2,4.51,3.9,6.73,5.78l2.82,2.39.13.08c1.11.8,2.21,1.61,3.31,2.43,2.25,1.65,4.57,3.37,7,4.93l.12.07c1,.59,2,1.2,3,1.81A72.5,72.5,0,0,0,858,832.6l1.81.88c1.31.64,2.66,1.3,4,1.91l.1,0,6.19,2.29a87.73,87.73,0,0,0,29.25,5h0a85.88,85.88,0,0,0,23.88-3.33c15.58-4.58,30.21-13.26,43.49-25.81a138.09,138.09,0,0,0,16.09-18.26c2.74-3.73,5.13-7.29,7.25-10.81l5.52,4,10.88,7.75c7.36,5.16,14.79,10.26,22.1,15.14,7.14,4.71,14.77,9.71,22.61,14.54,4.59,2.8,8.8,5.32,12.85,7.69,3.06,1.8,6.71,3.91,10.53,6l16.65,9-12.36-14.35c-2-2.35-4.13-4.65-6.16-6.88l-.46-.5c-3.83-4.2-7.77-8.42-11.73-12.56-6.34-6.59-12.87-13-19-19S1028.67,783.15,1022,777l-9.89-9-1.37-1.2c1.38-2.35,2.85-4.74,4.48-7.28,4-6.18,7.47-11.16,10.87-15.66a203.66,203.66,0,0,1,25.14-27.94,137.12,137.12,0,0,1,29.58-21,107.43,107.43,0,0,1,16.39-6.8,98.82,98.82,0,0,1,12.22-3c3.48,2.68,7.11,5.44,10.81,8.21,5.77,4.26,11.13,8.11,16.42,11.77,4.93,3.38,10.79,7.36,16.95,11.24,5.05,3.14,11.33,7,17.71,10.46l13,6.95-8.48-12c-3.86-5.47-8-10.62-12.55-16.32S1154,694.49,1150,690c-4.29-4.81-8.76-9.67-13.69-14.87-1.08-1.12-2.16-2.25-3.25-3.37a12.22,12.22,0,0,0,1-.66l1.52-1.18,2.91-2.3,2.66-2.58.81-.78c.59-.57,1.2-1.16,1.85-1.89l2.2-2.61a64,64,0,0,0,4.43-5.62c1.22-1.69,2.65-3.67,4-5.68l3.7-5.92A250.22,250.22,0,0,0,1171,618.42c4-8.32,7.84-16.82,11.27-24.42,5.74-13.83,12.93-32.2,17.7-51.63l1.7-6.61c.4-1.54.68-3.09,1-4.58.15-.77.29-1.55.46-2.4.28-1.55.58-3.09.88-4.64.58-2.93,1.17-6,1.59-9.13l1.58-13.91.58-14.3C1207.7,483.55,1207.52,480.27,1207.35,477.09Z"/><path class="cls-2" d="M987.31,778.17l-.42-.31-6.25-4.57,3.31-7.7c.83-1.93,1.51-3.44,2.31-5.09l2.4-4.79q2.45-4.73,5.09-9.32c3.5-6.14,7.37-12.06,11.46-17.84a200.78,200.78,0,0,1,28.16-32.16,148.43,148.43,0,0,1,36-24.53,115.14,115.14,0,0,1,42.79-11.13l4.79-.26,2.81,2.76c1.74,1.72,3.45,3.46,5.16,5.2l.77-.54a22.08,22.08,0,0,0,2.3-2c.37-.35.76-.67,1.11-1.05l1-1.22,2-2.41,1.74-2.65c.56-.89,1.18-1.72,1.69-2.65l1.54-2.8a58.13,58.13,0,0,0,2.93-5.66l2.72-5.79,2.43-6c3.24-7.95,6-16.11,8.72-24.44s5.42-16.6,8.23-24.84c1.34-4.13,2.47-8.29,3.71-12.43s2.64-8.21,3.58-12.4l3.2-12.45c.59-2.06,1-4.15,1.45-6.24l1.29-6.25,1.33-6.23c.47-2.08.69-4.17,1-6.25.61-4.17,1.44-8.33,1.86-12.49l1.27-12.46.39-12.38c.16-16.4-2.26-32.55-8.6-46.54-1.35-3.65-3.54-6.74-5.38-10.1-2.33-2.95-4.32-6.24-7.07-8.84a62.91,62.91,0,0,0-18.28-13.7,84.79,84.79,0,0,0-22.55-7.53,101.82,101.82,0,0,0-24.6-1.14c-16.56,1.26-33.64,6-47.28,17.46,1.3-1.77,2.58-3.64,4-5.35s3.08-3.32,4.76-4.85,3.48-2.94,5.32-4.29c1.63-1.08,3.26-2.19,4.92-3.27-1.41-1.42-2.8-2.83-4.2-4.22-2.79-2.6-5.73-5-8.55-7.5s-6-4.49-9-6.73-6.28-4-9.36-6A159.26,159.26,0,0,0,995,357.56c-28.09-7.4-57.66-8-86.39-3.82s-56.93,13.5-81.76,28.55a143.78,143.78,0,0,0-33.52,27.62c-1.2,1.37-2.46,2.73-3.63,4.14l-3.25,4.45c-2.36,2.89-4.07,6.14-6.08,9.31-.3.51-.61,1-.92,1.52a79.58,79.58,0,0,1,14.7-1.43,127.3,127.3,0,0,0-18.34,8.84l-.54,1.13c-1.6,3.46-2.65,7.12-4.15,10.75a73.13,73.13,0,0,1,.57-9.33,97.67,97.67,0,0,0-11.32,8.56,110.21,110.21,0,0,0-23.5,29.1c-12.2,21.65-17.86,46.62-18,71.38s5.65,49.66,18.14,71.13a116.5,116.5,0,0,0,34.42,37.23c2.63-7.07,6.16-13.83,11.17-19.26a75.74,75.74,0,0,0-5.49,23,165.26,165.26,0,0,0,17,9.23,94.49,94.49,0,0,1-17.3-3,99.19,99.19,0,0,0,.88,14.56,128.3,128.3,0,0,0,13.36,41A221,221,0,0,0,815,758.68l7,8.52,7.33,8.28,7.56,8.12,7.69,7.51c2.63,2.38,5.33,4.66,8,7,2.83,2,5.57,4.26,8.43,6.19a95.12,95.12,0,0,0,8.79,5.36c1.5.78,3,1.62,4.51,2.37s3.09,1.32,4.63,2a71.72,71.72,0,0,0,19.25,5,74.77,74.77,0,0,0,20.07-.53c13.49-2.3,26.8-8.29,39.2-16.26A193.65,193.65,0,0,0,987.31,778.17Z"/><path d="M964.36,811.06A137.32,137.32,0,0,0,989,779.43l8.61,6.29,10.85,7.74q10.92,7.65,22,15.08c7.44,4.91,14.9,9.79,22.51,14.47q6.36,3.88,12.79,7.67h0c3.44,2,6.9,4,10.43,5.92-2.15-2.49-4.35-4.9-6.56-7.31h0Q1063.93,823,1058,816.8c-6.2-6.44-12.56-12.69-18.93-18.92s-12.89-12.27-19.43-18.3l-9.87-9-3.47-3.07.93-1.66c1.61-2.78,3.3-5.53,5-8.24,3.51-5.41,7.15-10.75,11-15.88a209.18,209.18,0,0,1,25.56-28.39,140.53,140.53,0,0,1,30.36-21.53,112,112,0,0,1,16.91-7,104.4,104.4,0,0,1,14.18-3.37q5.94,4.6,12,9.1,8.07,6,16.33,11.71c5.53,3.8,11.1,7.55,16.81,11.15s11.49,7.11,17.52,10.35c-3.94-5.6-8.17-10.87-12.4-16.14s-8.68-10.29-13.12-15.32-9-9.92-13.61-14.78q-3.19-3.31-6.4-6.62h0a22.49,22.49,0,0,0,3.13-1.7c.5-.31,1-.59,1.52-.93l1.38-1.07,2.77-2.19,2.49-2.42c.81-.82,1.7-1.61,2.46-2.47l2.23-2.62a65.84,65.84,0,0,0,4.25-5.4c1.34-1.85,2.67-3.71,4-5.6l3.6-5.76a251.08,251.08,0,0,0,12.63-23.83c3.86-8,7.52-16.13,11.2-24.25,6.85-16.55,13.19-33.47,17.53-51.16l1.7-6.62c.57-2.2.9-4.48,1.36-6.72.81-4.52,1.83-9,2.44-13.55l1.57-13.79.57-14c0-4.7-.4-9.44-.61-14.15-.5-4.74-1.19-9.49-1.94-14.22-2.21-9.4-4.7-18.91-9.46-27.7-2-4.52-5-8.6-7.74-12.78-3.2-3.87-6.28-7.85-10.13-11.11a48.92,48.92,0,0,0-5.73-4.86c-2.05-1.45-4-3-6.13-4.31l-6.51-3.62c-2.2-1.14-4.53-2-6.77-3a92.28,92.28,0,0,0-28.26-6,101.92,101.92,0,0,0-28,2.72,91,91,0,0,0-25,9.91c-1-1.82-2-3.64-2.94-5.49-2.08-3.31-4.42-6.46-6.66-9.75s-5.09-6-7.68-9.1a48.13,48.13,0,0,0-4.23-4.22l-4.39-4.11a139.32,139.32,0,0,0-41.37-24.69c-30.3-11.69-63.63-14.12-95.45-9.38s-62.89,16.68-88.64,36.48c-12.77,9.93-24.14,21.94-32.39,35.88a95.84,95.84,0,0,0-11.07,27.45A86.46,86.46,0,0,0,754,438.52,102,102,0,0,0,721.82,467c-17.39,23.33-25.85,52.52-25.88,81.34.08,3.61,0,7.23.41,10.83s.48,7.22,1.17,10.78,1.08,7.16,2,10.67a97.77,97.77,0,0,0,2.82,10.49,124.1,124.1,0,0,0,19.79,38.52,105.59,105.59,0,0,0,32.35,28.09,100,100,0,0,0,14.6,6.6,88,88,0,0,0-2.65,17.35c-.87,16.26,2.38,32.66,8.07,47.81.66,1.92,1.47,3.77,2.25,5.64s1.52,3.77,2.42,5.57c1.75,3.63,3.51,7.27,5.5,10.76a209.25,209.25,0,0,0,12.79,20.37c2.3,3.27,4.78,6.38,7.18,9.57l7.57,9.21,8,8.8,8.64,8.63c3.07,2.73,6.26,5.36,9.39,8,3.4,2.42,6.64,5,10.19,7.25s7.12,4.47,11,6.21c1.92.92,3.81,1.88,5.76,2.74l6,2.24a84.21,84.21,0,0,0,51,1.61C938.68,831.24,952.78,822,964.36,811.06Zm-66.25,8a71.72,71.72,0,0,1-19.25-5c-1.54-.67-3.08-1.36-4.63-2s-3-1.59-4.51-2.37a95.12,95.12,0,0,1-8.79-5.36c-2.86-1.93-5.6-4.15-8.43-6.19-2.65-2.34-5.35-4.62-8-7l-7.69-7.51-7.56-8.12-7.33-8.28-7-8.52a221,221,0,0,1-23.84-36.47,128.3,128.3,0,0,1-13.36-41,99.19,99.19,0,0,1-.88-14.56,94.49,94.49,0,0,0,17.3,3,165.26,165.26,0,0,1-17-9.23,75.74,75.74,0,0,1,5.49-23c-5,5.43-8.54,12.19-11.17,19.26a116.5,116.5,0,0,1-34.42-37.23C724.6,598,718.94,573.1,719,548.33s5.76-49.73,18-71.38a110.21,110.21,0,0,1,23.5-29.1,97.67,97.67,0,0,1,11.32-8.56,73.13,73.13,0,0,0-.57,9.33c1.5-3.63,2.55-7.29,4.15-10.75l.54-1.13a127.3,127.3,0,0,1,18.34-8.84,79.58,79.58,0,0,0-14.7,1.43c.31-.51.62-1,.92-1.52,2-3.17,3.72-6.42,6.08-9.31l3.25-4.45c1.17-1.41,2.43-2.77,3.63-4.14a143.78,143.78,0,0,1,33.52-27.62c24.83-15.05,53.06-24.22,81.76-28.55s58.3-3.58,86.39,3.82a159.26,159.26,0,0,1,40.37,16.63c3.08,2,6.36,3.8,9.36,6s6.06,4.36,9,6.73,5.76,4.9,8.55,7.5c1.4,1.39,2.79,2.8,4.2,4.22-1.66,1.08-3.29,2.19-4.92,3.27-1.84,1.35-3.57,2.86-5.32,4.29s-3.19,3.26-4.76,4.85-2.74,3.58-4,5.35c13.64-11.45,30.72-16.2,47.28-17.46a101.82,101.82,0,0,1,24.6,1.14,84.79,84.79,0,0,1,22.55,7.53,62.91,62.91,0,0,1,18.28,13.7c2.75,2.6,4.74,5.89,7.07,8.84,1.84,3.36,4,6.45,5.38,10.1,6.34,14,8.76,30.14,8.6,46.54l-.39,12.38-1.27,12.46c-.42,4.16-1.25,8.32-1.86,12.49-.36,2.08-.58,4.17-1,6.25l-1.33,6.23-1.29,6.25c-.42,2.09-.86,4.18-1.45,6.24l-3.2,12.45c-.94,4.19-2.4,8.26-3.58,12.4s-2.37,8.3-3.71,12.43c-2.81,8.24-5.5,16.57-8.23,24.84s-5.48,16.49-8.72,24.44l-2.43,6-2.72,5.79a58.13,58.13,0,0,1-2.93,5.66l-1.54,2.8c-.51.93-1.13,1.76-1.69,2.65l-1.74,2.65-2,2.41-1,1.22c-.35.38-.74.7-1.11,1.05a22.08,22.08,0,0,1-2.3,2l-.77.54c-1.71-1.74-3.42-3.48-5.16-5.2l-2.81-2.76-4.79.26a115.14,115.14,0,0,0-42.79,11.13,148.43,148.43,0,0,0-36,24.53,200.78,200.78,0,0,0-28.16,32.16c-4.09,5.78-8,11.7-11.46,17.84q-2.64,4.61-5.09,9.32l-2.4,4.79c-.8,1.65-1.48,3.16-2.31,5.09l-3.31,7.7,6.25,4.57.42.31a193.65,193.65,0,0,1-29.93,24.06c-12.4,8-25.71,14-39.2,16.26A74.77,74.77,0,0,1,898.11,819Z"/><path class="cls-1" d="M1320,1548.62c-10.06-35.89-20.57-72.66-31.23-109.3l-3.64-12.52h-50l-3.78,12.24q-2.92,9.51-5.92,19.13l0-31.37H1071.83l0,32.57q-3.09-9.88-6.36-20.37l-3.8-12.2h-49.5l-3.92,12q-3.13,9.51-6.25,19a41,41,0,0,0-6.1-13.34,37.85,37.85,0,0,0-20.65-15.06c-6.06-1.73-14.09-2.57-24.54-2.57H896.11l-.05,132.3-5.7-18.44c-11-35.51-21.15-68.72-31.1-101.53l-3.74-12.33H805.78l-3.85,12.12q-3.4,10.72-6.76,21.38-.92-2-1.95-4c-6.14-11.34-14.69-19.35-25.44-23.82-9.26-3.85-20.37-5.72-34-5.72H690.63v145l18.45-1.16c9.43-.59,19-1.17,28.58-1.71a93.39,93.39,0,0,0,24-4.11c.35-.11.69-.25,1-.38l-1,3.12,24.69-1.15q11-.51,21.95-1l13-.54,5.32-21.51,3.7-.11c.65,2.54,5.45,21.07,5.45,21.07l13.9-.46q12.23-.41,24.45-.74l21.81-.61v0l17.71-.35c12.42-.24,24.91-.43,37.14-.57a123,123,0,0,0,17.41-1.29l-.35,1.06,24.06-.07,13.57,0h8.4l13.45,0,5.35-20.58,3.93,0,5.43,20.65,13.25.14q12.22.14,24.45.32l3.94.06,5.14.09q12,.21,23.91.49l12.94.29,13.19.37q12,.35,23.9.74l10.37.34,10.19.39q11.94.45,23.89,1l3.15.13,3.94.18q11,.48,21.95,1l14.27.7s4.73-19.08,5.38-21.69l3.47.15c.78,3.25,5.38,22.3,5.38,22.3l12.86.74q12.21.71,24.42,1.48l24.42,1.54Z"/><path class="cls-2" d="M958.84,1480.73a13.76,13.76,0,0,0,3-8.73,12.2,12.2,0,0,0-3-8.09q-3-3.54-12.83-3.53l-9.52,0v24.25l7.75,0Q955.84,1484.55,958.84,1480.73Z"/><path class="cls-2" d="M960.67,1503.7q-4.11-3-12.43-2.9l-11.76.09q0,13.18,0,26.37l11.76-.13q16.56-.17,16.56-13.21Q964.79,1506.65,960.67,1503.7Z"/><path class="cls-2" d="M817.69,1508.55q10.8-.27,21.6-.5-5.49-20.92-11-42Q823,1487.21,817.69,1508.55Z"/><path class="cls-2" d="M748.45,1465.1q-4.53-2.58-12.38-2.51l-4.09,0q0,35.38,0,70.77l4.09-.2q8.34-.39,12.9-3.72t7.3-11.2q2.73-7.86,2.74-22.49,0-13.55-3-20.83C754,1470.11,751.47,1466.81,748.45,1465.1Z"/><path class="cls-2" d="M1024,1506.25q10.82,0,21.62.09-5.52-20.5-11-41Q1029.3,1485.82,1024,1506.25Z"/><path class="cls-2" d="M1247.17,1510.06l21.6.72q-5.51-22.12-11-44Q1252.45,1488.53,1247.17,1510.06Z"/><path d="M761.12,1448.56q-10.51-4.36-27.3-4.39H708V1553.3q14.34-.9,28.68-1.71a77.36,77.36,0,0,0,19.58-3.26,33.8,33.8,0,0,0,14.07-9.21q6.24-6.63,10.08-17.73a77.27,77.27,0,0,0,3.85-25.24c0-13.28-2.1-23.77-6.31-31.55S768.13,1451.47,761.12,1448.56Zm-4.87,69.72q-2.73,7.86-7.3,11.2t-12.9,3.72l-4.09.2q0-35.39,0-70.77l4.09,0q7.84-.08,12.38,2.51c3,1.71,5.53,5,7.54,9.86s3,11.8,3,20.83Q759,1510.43,756.25,1518.28Z"/><path d="M818.49,1444.17q-16.43,51.74-32.83,104.89,11-.51,22-1,2.68-10.86,5.37-21.65,15.36-.5,30.74-.91,2.72,10.52,5.43,21,12.27-.4,24.53-.74-15.56-50.38-31.12-101.62Zm-.8,64.38q5.29-21.33,10.6-42.49,5.51,21.07,11,42Q828.49,1508.28,817.69,1508.55Z"/><path d="M970.63,1492q15.6-4.8,15.6-21.54,0-9.57-4.52-16a20.37,20.37,0,0,0-11.19-8.34q-6.67-1.89-19.79-1.9H913.47q0,50.34,0,100.68,18.65-.36,37.27-.58,13.6-.16,21-2.43a24.33,24.33,0,0,0,12.44-9q5-6.72,5-16.44Q989.18,1497.92,970.63,1492Zm-34.14-31.56,9.52,0q9.84,0,12.83,3.53a12.2,12.2,0,0,1,3,8.09,13.76,13.76,0,0,1-3,8.73q-3,3.82-14.6,3.88l-7.75,0Zm11.74,66.73-11.76.13q0-13.18,0-26.37l11.76-.09q8.31-.06,12.43,2.9t4.12,10.22Q964.79,1527,948.23,1527.13Z"/><path d="M1024.77,1444.17q-16.39,49.9-32.79,99.8,11,0,22,0,2.69-10.31,5.35-20.61,15.39,0,30.76.15,2.71,10.35,5.45,20.71,12.27.13,24.54.33-15.62-50.43-31.22-100.37Zm-.77,62.08q5.3-20.43,10.58-40.88,5.52,20.46,11,41Q1034.81,1506.28,1024,1506.25Z"/><path d="M1139.42,1444.17q0,20.52,0,41-13.11-.15-26.23-.27,0-20.39,0-40.77h-24q0,50.26,0,100.52,12,.21,24,.48,0-20.64,0-41.29,13.13.18,26.23.4,0,20.78,0,41.56,12,.35,24,.74l0-102.41Z"/><path d="M1184,1444.17l.06,103.14q12,.45,24,1,0-52.07,0-104.11Z"/><path d="M1247.92,1444.17q-16.38,53-32.73,104.42,11,.48,22,1,2.67-10.75,5.34-21.57,15.38.6,30.73,1.3,2.71,11.21,5.44,22.49,12.26.7,24.51,1.47-15.57-55.54-31.18-109.13Zm-.75,65.89q5.28-21.52,10.56-43.28,5.54,21.87,11,44Z"/><path class="cls-1" d="M84.43,1516.69,89,1515.1c88.06-30.86,185-53.21,288.22-66.44a1622.8,1622.8,0,0,1,203.4-13.34c30.14,0,47.32,1,48,1.06l6.57.39L656,1576.91h-9.4c-138.4,0-287.45,25.55-388.13,47C149.2,1647.15,71.77,1670.72,71,1671l-12.48,3.81Z"/><path class="cls-1" d="M1929,1671c-.77-.24-78.2-23.81-187.43-47.06-100.68-21.44-249.73-47-388.13-47H1344l20.76-140.14,6.57-.39c.71-.05,17.89-1.06,48-1.06a1623,1623,0,0,1,203.41,13.34C1726,1461.89,1823,1484.25,1911,1515.1l4.53,1.59,25.92,158.08Z"/><path class="cls-4" d="M91.65,1522.75l-23,140.46s308.54-94.41,577.93-94.41l-18.42-124.33S361.05,1428.35,91.65,1522.75Z"/><path class="cls-4" d="M1908.34,1522.75c-269.39-94.4-536.48-78.28-536.48-78.28l-18.42,124.33c269.39,0,577.93,94.41,577.93,94.41Z"/></svg>