<svg id="Camada_1" data-name="Camada 1" xmlns="http://www.w3.org/2000/svg" viewBox="0 0 200 200"><defs><style>.cls-1{fill:#fff;}.cls-2{fill:#39b54a;}</style></defs><path class="cls-1" d="M100,157.5A71.5,71.5,0,1,1,171.5,86,71.57,71.57,0,0,1,100,157.5Z"/><path d="M124,104.41l.89-.35c3.34-1.39,5-4,4.72-7.21s-2.41-5.56-6-6.21c-9.88-1.81-19.79-3.52-29.68-5.26l-2.67-.47c.46-4.94.89-9.58,1.38-14.89-2.16.77-4.12,1.06-5.59,2.06-3.21,2.2-6.22,4.7-9.21,7.2A11.36,11.36,0,0,1,68.05,82a5.83,5.83,0,0,0-1,0l0-.17c.36-2-.44-3-2.4-3.26-2.61-.39-5.19-.91-7.78-1.35C54,76.72,53.56,77,53,79.94q-2,11.19-3.94,22.38c-1.33,7.62-2.64,15.25-4,22.85-.38,2.07.19,3.2,2.36,3.51,2.76.4,5.51.91,8.25,1.44,1.82.35,2.91-.19,3.24-2.13l.12-.66a41.51,41.51,0,0,1,6.7,3.17c3.84,2.65,7.42,5.67,11.11,8.53l33,5.8c.28-.12.55-.27.85-.37,5.8-2,7.15-8,2.72-12.26a10.82,10.82,0,0,1-.86-1.08c4.17,1.11,7.58.68,9.63-2.94s.82-7-2.47-9.73c5.58.43,8.49-1,9.64-4.64S129,107.28,124,104.41Z"/><polygon class="cls-2" points="120.42 90.31 89.36 87.28 97.81 39.19 110.7 40.49 121.57 31.22 132.77 36.59 149.06 46.25 120.42 90.31"/><path d="M151.29,44.56c-3-1.74-6.06-3.53-9.08-5.31Q131.11,32.68,120,26.09l-1.41-.25c-2.42,4.21-4.83,8.42-7.37,12.86l-11.6-2c-3.17-.56-3.48-.36-3.82,2.78C94.47,52,89.36,84.93,89.11,87.57l4.12.72c1.16-12.51,4.22-27.42,5.38-39.84,4.4.2,7-1.91,8.25-5.58l17.17,3c-.25,4.21,1.82,6.73,5.7,8.09l-9.45,36.22,4,.91c.2-.55.41-1,.52-1.42a21.52,21.52,0,0,1,1-4c1.83-2.91,17.65-25.29,26.28-38C152.9,46.43,152.73,45.39,151.29,44.56ZM129.55,73.87a22.47,22.47,0,0,0-2,4.56q4-16.08,7.91-32.17c.72-2.91.47-3.22-2.58-3.76l-18-3.15a2.48,2.48,0,0,0,1.33-1.66c3.94,1.76,7.06.51,9.7-2.54l15,8.77c-1.74,4.07-.64,7.22,2.55,9.77C138.72,60.47,133.75,66.94,129.55,73.87Z"/><path d="M111.61,65.76a10.51,10.51,0,1,1-12.12,8.1A10.15,10.15,0,0,1,111.61,65.76Zm-8.15,8a23.35,23.35,0,0,0,1.5,2.53c.58.76,1.26,1.82,2,2a3.89,3.89,0,0,0,2.58-1.15c.64-.53.86-1.53,1.45-2.16a2,2,0,0,1,1.59-.55c.31,0,.75.89.69,1.31-.18,1.21-.58,2.39-1,4.19l4.39-2.56c-.58-.47-1.25-.79-1.55-1.32s-.24-1.4-.51-2a2.48,2.48,0,0,0-4.4-.63c-.65.79-1,1.8-1.73,2.55-.34.38-1.07.4-1.62.58A4.14,4.14,0,0,1,106.4,75a31.51,31.51,0,0,1,.79-3.32Z"/><path d="M112,60.5c-.43-1-1.42-2.26-1.14-3a3.36,3.36,0,0,1,2.73-1.7c.62,0,1.74,1.7,1.63,2.5s-1.38,1.64-2.14,2.44Z"/><path d="M100,161a75,75,0,1,1,75-75A75.08,75.08,0,0,1,100,161Zm0-144.23A69.23,69.23,0,1,0,169.23,86,69.31,69.31,0,0,0,100,16.77Z"/><polygon class="cls-1" points="17.12 193.5 17.12 170.5 34.84 170.5 34.84 176.34 23.05 176.34 23.05 179.17 34.42 179.17 34.42 184.86 23.05 184.86 23.05 187.6 34.84 187.6 34.84 193.5 17.12 193.5"/><path d="M33.84,171.5v3.84H22.05v4.83H33.42v3.69H22.05v4.74H33.84v3.9H18.12v-21H33.84m2-2H16.12v25H35.84v-7.9H24.05v-.74H35.42v-7.69H24.05v-.83H35.84V169.5Z"/><path class="cls-1" d="M52.38,194c-5.2,0-8.5-1.89-10.08-5.78l-.34-.85L47,184.78l.41,1c.68,1.69,2.55,2.7,5,2.7.89,0,3.83-.16,3.83-2.15,0-.41,0-1.67-4-2.1-2.75-.32-9.14-1.08-9.14-7.35,0-4.87,4.58-7.08,9.12-7.12s7.64,1.64,9.15,4.73l.44.88L57,177.89l-.48-.81a5.12,5.12,0,0,0-4.12-1.85c-1.62,0-3.35.47-3.35,1.79,0,.85,1.1,1.33,3.79,1.65,3,.37,9.35,1.15,9.35,7.68C62.2,191.09,58.43,194,52.38,194Z"/><path d="M52.29,170.78c3.27,0,6.66.93,8.25,4.17l-3.16,1.62a6,6,0,0,0-5-2.34c-2.94,0-4.35,1.23-4.35,2.79,0,1.83,2.16,2.34,4.68,2.64,4.38.54,8.46,1.68,8.46,6.69,0,4.68-4.14,6.69-8.82,6.69-4.29,0-7.59-1.32-9.15-5.16l3.3-1.71c.93,2.31,3.36,3.33,5.91,3.33s4.83-.87,4.83-3.15c0-2-2.07-2.79-4.86-3.09-4.29-.51-8.25-1.65-8.25-6.36,0-4.32,4.26-6.09,8.13-6.12m0-2h0c-5,0-10.11,2.56-10.11,8.12a7.18,7.18,0,0,0,4.45,7l-1,.52-3.3,1.71-1.62.84.68,1.69c1.73,4.25,5.43,6.41,11,6.41,6.57,0,10.82-3.41,10.82-8.69,0-4.57-2.73-6.66-5.53-7.68l.63-.32,3.15-1.62,1.75-.9-.87-1.76c-1.7-3.46-5.17-5.29-10-5.29ZM50.06,177c.08-.39.95-.75,2.35-.75a4.15,4.15,0,0,1,3.26,1.37l.35.58a26.34,26.34,0,0,0-3-.5,7.09,7.09,0,0,1-2.92-.7Zm2.38,10.52c-.76,0-3.28-.15-4.06-2.08l-.41-1a21.68,21.68,0,0,0,4.2.84c1.86.2,3.1.64,3.1,1.1,0,1.14-2.72,1.15-2.83,1.15Z"/><path class="cls-1" d="M70.16,193.5v-23H76.1l5,0a8.29,8.29,0,0,1,8.7,8.43,8.47,8.47,0,0,1-2.19,5.78,8.57,8.57,0,0,1-6.51,2.64H76.12v6.18Zm10.9-11.81a2.75,2.75,0,0,0,2.1-.83,2.81,2.81,0,0,0,.69-1.88,2.62,2.62,0,0,0-2.79-2.73H76.12v5.44Z"/><path d="M81.06,171.47c10.25,0,10.28,14.85,0,14.85H75.12v6.18h-4v-21l9.9,0m-5.94,11.22h5.94c5.07,0,5-7.44,0-7.44H75.12v7.44m5.94-13.22-5,0H69.16v25h8v-6.18h3.94a9.24,9.24,0,0,0,9.7-9.42,9.26,9.26,0,0,0-9.7-9.43Zm-3.94,7.78h3.94A1.63,1.63,0,0,1,82.85,179a1.82,1.82,0,0,1-.43,1.21,1.76,1.76,0,0,1-1.36.5H77.12v-3.44Z"/><path class="cls-1" d="M97.28,193.5v-23H115v5.84H103.21v2.83h11.37v5.69H103.21v2.74H115v5.9Zm6.27-23.13v-1.43l2.62-4.83h5.91v1.5l-3.82,4.76Z"/><path d="M111.08,165.11v.15l-3.29,4.11h-3.24v-.18l2.22-4.08h4.31M114,171.5v3.84H102.21v4.83h11.37v3.69H102.21v4.74H114v3.9H98.28v-21H114m-.92-8.39h-7.5l-.57,1-2.22,4.08-.24.44v.82H96.28v25H116v-7.9H104.21v-.74h11.37v-7.69H104.21v-.83H116V169.5h-5.75l2.39-3,.44-.55v-2.85Z"/><path class="cls-1" d="M134.33,194c-8.9,0-12.09-6.37-12.12-11.82a12.27,12.27,0,0,1,3.39-8.73,12,12,0,0,1,8.73-3.35,11.79,11.79,0,0,1,8.42,3.5l.73.72-4.08,3.94-.69-.68a6.17,6.17,0,0,0-4.38-1.7,6,6,0,0,0-4.48,1.68,6.45,6.45,0,0,0-1.75,4.6c0,1.44.5,6.12,6.23,6.12a6.76,6.76,0,0,0,4.58-1.84l.71-.71,4.11,4.16-.71.7A12.1,12.1,0,0,1,134.33,194Z"/><path d="M134.33,171.08a10.83,10.83,0,0,1,7.71,3.21l-2.64,2.55a7.21,7.21,0,0,0-5.07-2c-5.07,0-7.25,3.78-7.23,7.29s2,7.11,7.23,7.11a7.73,7.73,0,0,0,5.28-2.13l2.7,2.73a11.07,11.07,0,0,1-8,3.12c-7.79,0-11.09-5.37-11.12-10.83s3.54-11.07,11.12-11.07m0-2a13,13,0,0,0-9.44,3.64,13.32,13.32,0,0,0-3.68,9.44c0,6.38,4.1,12.82,13.12,12.82a13.05,13.05,0,0,0,9.39-3.7l1.42-1.4-1.4-1.43-2.7-2.73-1.42-1.43-1.42,1.43a5.76,5.76,0,0,1-3.87,1.54c-4.68,0-5.21-3.59-5.23-5.13a5.45,5.45,0,0,1,1.46-3.89,5.05,5.05,0,0,1,3.77-1.38,5.2,5.2,0,0,1,3.68,1.41l1.39,1.36,1.39-1.35,2.64-2.55,1.48-1.42-1.46-1.44a12.76,12.76,0,0,0-9.12-3.79Z"/><rect class="cls-1" x="150.5" y="170.5" width="5.93" height="23"/><path d="M155.42,171.5v21H151.5v-21h3.92m2-2H149.5v25h7.92v-25Z"/><polygon class="cls-1" points="164.99 193.5 164.99 170.5 182.7 170.5 182.7 176.34 170.91 176.34 170.91 179.17 182.28 179.17 182.28 184.86 170.91 184.86 170.91 187.6 182.7 187.6 182.7 193.5 164.99 193.5"/><path d="M181.7,171.5v3.84H169.92v4.83h11.36v3.69H169.92v4.74H181.7v3.9H166v-21H181.7m2-2H164v25H183.7v-7.9H171.92v-.74h11.36v-7.69H171.92v-.83H183.7V169.5Z"/></svg>