<svg id="Camada_1" data-name="Camada 1" xmlns="http://www.w3.org/2000/svg" viewBox="0 0 420 200"><defs><style>.cls-1{fill:#fff;}.cls-2{fill:#39b54a;}</style></defs><path class="cls-1" d="M100,171.5A71.5,71.5,0,1,1,171.5,100,71.57,71.57,0,0,1,100,171.5Z"/><path d="M124,118.41l.89-.35c3.34-1.39,5-4,4.72-7.21s-2.41-5.56-6-6.21c-9.88-1.81-19.79-3.52-29.68-5.26l-2.67-.47c.46-4.94.89-9.58,1.38-14.89-2.16.77-4.12,1.06-5.59,2.06-3.21,2.2-6.22,4.7-9.21,7.2A11.36,11.36,0,0,1,68.05,96a5.83,5.83,0,0,0-1,0l0-.17c.36-2-.44-3-2.4-3.26-2.61-.39-5.19-.91-7.78-1.35C54,90.72,53.56,91,53,93.94q-2,11.19-3.94,22.38c-1.33,7.62-2.64,15.25-4,22.85-.38,2.07.19,3.2,2.36,3.51,2.76.4,5.51.91,8.25,1.44,1.82.35,2.91-.19,3.24-2.13l.12-.66a41.51,41.51,0,0,1,6.7,3.17c3.84,2.65,7.42,5.67,11.11,8.53l33,5.8c.28-.12.55-.27.85-.37,5.8-2,7.15-8,2.72-12.26a10.82,10.82,0,0,1-.86-1.08c4.17,1.11,7.58.68,9.63-2.94s.82-7-2.47-9.73c5.58.43,8.49-1,9.64-4.64S129,121.28,124,118.41Z"/><polygon class="cls-2" points="120.42 104.31 89.36 101.28 97.81 53.19 110.7 54.49 121.57 45.22 132.77 50.59 149.06 60.25 120.42 104.31"/><path d="M151.29,58.56c-3-1.74-6.06-3.53-9.08-5.31Q131.11,46.68,120,40.09l-1.41-.25c-2.42,4.21-4.83,8.42-7.37,12.86l-11.6-2c-3.17-.56-3.48-.36-3.82,2.78C94.47,66,89.36,98.93,89.11,101.57l4.12.72c1.16-12.51,4.22-27.42,5.38-39.84,4.4.2,7-1.91,8.25-5.58l17.17,3c-.25,4.21,1.82,6.73,5.7,8.09l-9.45,36.22,4,.91c.2-.55.41-1,.52-1.42a21.52,21.52,0,0,1,1-4c1.83-2.91,17.65-25.29,26.28-38C152.9,60.43,152.73,59.39,151.29,58.56ZM129.55,87.87a22.47,22.47,0,0,0-2,4.56q4-16.08,7.91-32.17c.72-2.91.47-3.22-2.58-3.76l-18-3.15a2.48,2.48,0,0,0,1.33-1.66c3.94,1.76,7.06.51,9.7-2.54l15,8.77c-1.74,4.07-.64,7.22,2.55,9.77C138.72,74.47,133.75,80.94,129.55,87.87Z"/><path d="M111.61,79.76a10.51,10.51,0,1,1-12.12,8.1A10.15,10.15,0,0,1,111.61,79.76Zm-8.15,8a23.35,23.35,0,0,0,1.5,2.53c.58.76,1.26,1.82,2,2a3.89,3.89,0,0,0,2.58-1.15c.64-.53.86-1.53,1.45-2.16a2,2,0,0,1,1.59-.55c.31,0,.75.89.69,1.31-.18,1.21-.58,2.39-1,4.19l4.39-2.56c-.58-.47-1.25-.79-1.55-1.32s-.24-1.4-.51-2a2.48,2.48,0,0,0-4.4-.63c-.65.79-1,1.8-1.73,2.55-.34.38-1.07.4-1.62.58A4.14,4.14,0,0,1,106.4,89a31.51,31.51,0,0,1,.79-3.32Z"/><path d="M112,74.5c-.43-1-1.42-2.26-1.14-3a3.36,3.36,0,0,1,2.73-1.7c.62,0,1.74,1.7,1.63,2.5s-1.38,1.64-2.14,2.44Z"/><path d="M100,175a75,75,0,1,1,75-75A75.08,75.08,0,0,1,100,175Zm0-144.23A69.23,69.23,0,1,0,169.23,100,69.31,69.31,0,0,0,100,30.77Z"/><polygon class="cls-2" points="197.12 114.4 197.12 87.51 217.75 87.51 217.75 94.06 203.77 94.06 203.77 97.79 217.25 97.79 217.25 104.16 203.77 104.16 203.77 107.78 217.75 107.78 217.75 114.4 197.12 114.4"/><path d="M216.75,88.51v4.55h-14v5.73h13.48v4.37H202.77v5.62h14v4.62H198.12V88.51h18.63m2-2H196.12V115.4h22.63v-8.62h-14v-1.62h13.48V96.79H204.77V95.06h14V86.51Z"/><path class="cls-2" d="M238.72,115c-6.08,0-9.93-2.2-11.77-6.74l-.34-.84,5.69-3,.41,1c.84,2.08,3.11,3.32,6.08,3.32,1.11,0,4.73-.19,4.73-2.73,0-.53,0-2.14-4.87-2.67-5.28-.62-10.67-2.13-10.67-8.53,0-5.64,5.34-8.21,10.63-8.25s8.91,1.9,10.68,5.5l.43.88-5.44,2.8-.48-.8a6.15,6.15,0,0,0-5-2.29c-2.61,0-4.16.86-4.16,2.3,0,1.13,1.35,1.74,4.66,2.14,3.55.44,10.91,1.34,10.91,8.92C250.17,111.62,245.79,115,238.72,115Z"/><path d="M238.61,87.66c3.88,0,7.9,1.1,9.78,4.94l-3.73,1.92a7.15,7.15,0,0,0-5.9-2.77c-3.49,0-5.16,1.46-5.16,3.3,0,2.17,2.56,2.78,5.55,3.13,5.19.64,10,2,10,7.93,0,5.55-4.9,7.93-10.45,7.93-5.08,0-9-1.56-10.84-6.12l3.91-2c1.1,2.74,4,3.94,7,3.94s5.73-1,5.73-3.73c0-2.35-2.46-3.31-5.76-3.66-5.09-.61-9.78-2-9.78-7.54,0-5.12,5.05-7.22,9.63-7.25m0-2h0c-5.79,0-11.62,2.92-11.62,9.25,0,4.76,2.76,7.07,5.74,8.25l-1.85,1-3.91,2-1.62.84.68,1.69c2,4.88,6.26,7.36,12.7,7.36,7.57,0,12.45-3.9,12.45-9.93,0-5.63-3.65-8-7.13-9l1.53-.79,3.74-1.92,1.74-.9-.86-1.76c-1.95-4-5.95-6.06-11.58-6.06ZM243.83,97a27.56,27.56,0,0,0-4.44-.83c-3.61-.43-3.79-1-3.79-1.15,0-.9,1.58-1.3,3.16-1.3a5.22,5.22,0,0,1,4.18,1.8l.89,1.48Zm-5,10.81c-.95,0-4.14-.19-5.15-2.69l-.78-1.94a23.47,23.47,0,0,0,5.66,1.23c1.22.13,4,.55,4,1.67,0,1.65-3.11,1.73-3.73,1.73Z"/><path class="cls-2" d="M260,114.4V87.51h1l5.86,0h5.87c6.65,0,10.13,4.93,10.13,9.81A9.86,9.86,0,0,1,280.3,104a10,10,0,0,1-7.59,3.07h-6v7.32Zm12.73-13.63a3.44,3.44,0,0,0,2.63-1,3.49,3.49,0,0,0,.87-2.36,3.27,3.27,0,0,0-3.5-3.41h-6v6.81Z"/><path d="M272.71,88.48c12.16,0,12.2,17.6,0,17.6h-7v7.32H261V88.51c3.91,0,7.82,0,11.73,0m-7,13.29h7c6,0,6-8.81,0-8.81h-7v8.81m7-15.29h-5.87l-5.86,0h-2V115.4h8.69v-7.32h5a10.59,10.59,0,0,0,11.13-10.79c0-5.38-3.82-10.81-11.13-10.81Zm-5,8.48h5a2.3,2.3,0,0,1,2.49,2.42,2.55,2.55,0,0,1-.6,1.68,2.45,2.45,0,0,1-1.89.71h-5V95Z"/><path class="cls-2" d="M292.12,114.4V87.51h20.63v6.55h-14v3.73h13.47v6.37H298.78v3.62h14v6.62ZM299.55,87V85.52l3-5.58h6.71v1.53L304.87,87Z"/><path d="M308.3,80.94v.18L304.39,86h-3.84v-.22l2.63-4.83h5.12m3.45,7.57v4.55h-14v5.73h13.47v4.37H297.78v5.62h14v4.62H293.12V88.51h18.63m-1.45-9.57H302l-.56,1-2.63,4.84-.25.45v1.24h-7.43V115.4h22.63v-8.62h-14v-1.62h13.47V96.79H299.78V95.06h14V86.51h-7.21l3.32-4.14.44-.55V78.94Z"/><path class="cls-2" d="M335.86,115c-10.42,0-14.16-7.45-14.19-13.83a14.41,14.41,0,0,1,4-10.22A14,14,0,0,1,335.86,87a13.79,13.79,0,0,1,9.84,4.1l.73.72-4.57,4.41-.69-.68a7.53,7.53,0,0,0-5.31-2.07,7.36,7.36,0,0,0-5.45,2,7.84,7.84,0,0,0-2.12,5.6c0,3.59,2,7.43,7.57,7.43a8.26,8.26,0,0,0,5.55-2.23l.71-.71,4.61,4.66-.71.7A14.13,14.13,0,0,1,335.86,115Z"/><path d="M335.86,88A12.8,12.8,0,0,1,345,91.82l-3.12,3a8.56,8.56,0,0,0-6-2.35c-6,0-8.61,4.48-8.57,8.64s2.42,8.43,8.57,8.43a9.2,9.2,0,0,0,6.26-2.52l3.2,3.23a13.1,13.1,0,0,1-9.46,3.7c-9.25,0-13.16-6.37-13.19-12.84S326.86,88,335.86,88m0-2a15,15,0,0,0-10.93,4.21,15.37,15.37,0,0,0-4.26,10.92c0,7.38,4.75,14.83,15.19,14.83a15.13,15.13,0,0,0,10.86-4.27l1.43-1.41-1.41-1.42-3.2-3.24-1.42-1.43-1.42,1.42a7.16,7.16,0,0,1-4.84,1.94c-6.05,0-6.56-4.93-6.57-6.44a6.81,6.81,0,0,1,1.83-4.88,6.38,6.38,0,0,1,4.74-1.75,6.5,6.5,0,0,1,4.61,1.78l1.39,1.36,1.4-1.35,3.12-3,1.48-1.43-1.46-1.44A14.78,14.78,0,0,0,335.86,86Z"/><rect class="cls-2" x="355.2" y="87.51" width="6.66" height="26.89"/><path d="M360.85,88.51V113.4H356.2V88.51h4.65m2-2H354.2V115.4h8.65V86.51Z"/><polygon class="cls-2" points="372.37 114.4 372.37 87.51 393 87.51 393 94.06 379.03 94.06 379.03 97.79 392.5 97.79 392.5 104.16 379.03 104.16 379.03 107.78 393 107.78 393 114.4 372.37 114.4"/><path d="M392,88.51v4.55H378v5.73H391.5v4.37H378v5.62h14v4.62H373.37V88.51H392m2-2H371.37V115.4H394v-8.62H380v-1.62H393.5V96.79H380V95.06h14V86.51Z"/></svg>