<svg id="Camada_1" data-name="Camada 1" xmlns="http://www.w3.org/2000/svg" viewBox="0 0 420 200"><defs><style>.cls-1{fill:#fff;}.cls-2{fill:#4bb7a9;}.cls-3{fill:#4bb8a9;}.cls-4{font-size:20px;fill:#f15a24;font-family:MyriadPro-Regular, Myriad Pro;letter-spacing:0.28em;}.cls-5{letter-spacing:0.28em;}.cls-6{letter-spacing:0.28em;}.cls-7{letter-spacing:0.27em;}</style></defs><path class="cls-1" d="M100,172.5A72.5,72.5,0,1,1,172.5,100,72.58,72.58,0,0,1,100,172.5Z"/><path d="M149,110c.13,3-1.06,5.42-2.75,7.81-7.75,11-10.82,14.73-20.37,24.21a73.78,73.78,0,0,1-9.4,8.48c-4.87,3.41-10.6,4.25-16.48,3.57s-11.83-1.51-17.72-2.38a2.79,2.79,0,0,1-1.89-1.4c-3.64-9.81-7.19-19.65-10.75-29.49a4.3,4.3,0,0,1-.15-.75c9.94-5,20.13-7.78,31.14-4.76a11.7,11.7,0,0,0,8.43-.66,48.27,48.27,0,0,1,6.1-2.22,10.45,10.45,0,0,1,3.49-.56c3.84.17,5.67,3.34,4,6.78-1.81,3.67-5.13,5.51-8.74,6.9-1.74.67-3.57,1.07-5.35,1.66-1.61.53-2.61,1.58-2,3.38A2.36,2.36,0,0,0,110,132a104.16,104.16,0,0,0,12.16-6c3.36-2.1,10.11-12.86,13.67-16.58,4.46-4.64,7.84-6.53,12.24-1.9Z"/><path d="M53.46,124.81a2.72,2.72,0,0,1,1.66-3.5l11.12-3.88h0a2.72,2.72,0,0,1,3.47,1.64l12,33.07a2.72,2.72,0,0,1-1.64,3.49l-11.11,4a2.72,2.72,0,0,1-3.5-1.63Z"/><path d="M136.25,62c-1.55-1.6-3.14-3.18-4.67-4.7-.88-.87-1.75-1.75-2.62-2.62a7.26,7.26,0,0,0-2.11-1.48l-.2-.35a6.46,6.46,0,0,0-1.2-1.66l-3.53-3.54c-3.09-3.09-6.27-6.28-9.47-9.39a15.09,15.09,0,0,0-10-4.19c-.29,0-.58,0-.86,0h0A16.19,16.19,0,0,0,89.93,39L78.07,50.84a6.69,6.69,0,0,0-1.76,2.42,7.54,7.54,0,0,0-2.24,1.56c-2.36,2.38-4.76,4.78-7,7a16.73,16.73,0,0,0-4.16,6.83c-.12.37-.2.7-.26,1,0,0-.47.76-.58,3.71a14.73,14.73,0,0,0,1.14,5.78A16.38,16.38,0,0,0,67,85l.42.41c2.19,2.2,4.46,4.46,6.68,6.7a7.64,7.64,0,0,0,1.72,1.3l1.21,1.5,0,0a8.53,8.53,0,0,0,.67.76l2.14,2.14Q85,103,90.17,108.15a16.1,16.1,0,0,0,7.84,4.3l.44.09.62.39h4.75l.57-.33a16.75,16.75,0,0,0,9.12-4.93c2.52-2.54,5.11-5.12,7.61-7.62L125,96.16a7.26,7.26,0,0,0,1.76-2.38A7.37,7.37,0,0,0,129,92.16l2-2c1.7-1.69,3.45-3.44,5.17-5.19A16.13,16.13,0,0,0,136.25,62Z"/><path class="cls-2" d="M65.26,71.93a8.82,8.82,0,0,0,.47-1.67,11.49,11.49,0,0,1,2.89-4.74c2.56-2.56,5.13-5.12,7.68-7.69a1.24,1.24,0,0,1,1-.42c1.28,0,2.56,0,3.84,0a7.44,7.44,0,0,1,5.53,2.3l10.4,10.4c2.55,2.54,5.59,2.55,8.12,0,3.42-3.41,6.86-6.81,10.24-10.25a8.06,8.06,0,0,1,6-2.54c1.5,0,3,0,4.48,0a1.14,1.14,0,0,1,.87.37c2.64,2.65,5.32,5.27,7.93,8a11,11,0,0,1-.07,15.69c-2.59,2.63-5.22,5.23-7.83,7.84-.16.16-.3.37-.58.36-2,0-4,.06-6-.07A7.45,7.45,0,0,1,115.4,87L105.15,76.75c-2.46-2.47-5.6-2.46-8.09,0C93.64,80.18,90.21,83.58,86.82,87a8.06,8.06,0,0,1-6,2.5c-1.13,0-2.27,0-3.41,0a1.28,1.28,0,0,1-1-.41q-3.87-3.9-7.78-7.79a11.12,11.12,0,0,1-3.09-5.64c0-.21,0-.49-.23-.63Z"/><path class="cls-3" d="M100.78,109.87a4.65,4.65,0,0,0-1.55-.35,11,11,0,0,1-5.36-2.91L80.31,93.06c-.08-.08-.14-.18-.28-.34a20.11,20.11,0,0,0,3.44-.25A11,11,0,0,0,89,89.4q5.13-5.16,10.29-10.3c1.34-1.34,2.38-1.34,3.71,0,3.35,3.35,6.73,6.66,10,10.06a11,11,0,0,0,8.69,3.58c.44,0,.88,0,1.35,0a1.39,1.39,0,0,1-.52.68c-4.23,4.24-8.48,8.46-12.69,12.72a11.55,11.55,0,0,1-7.41,3.62c-.08,0-.16.08-.23.13Z"/><path class="cls-2" d="M123.06,54.15a22.14,22.14,0,0,0-4.19.23,11,11,0,0,0-5.56,3.09l-10.4,10.4c-1.27,1.27-2.29,1.27-3.58,0-3.33-3.33-6.7-6.63-10-10a11.3,11.3,0,0,0-8.75-3.67c-.15,0-.33.06-.47-.07,0-.23.24-.34.38-.48L93.62,40.52a10.91,10.91,0,0,1,8.58-3.37,9.88,9.88,0,0,1,6.57,2.67c4.76,4.65,9.44,9.38,14.15,14.08A1.81,1.81,0,0,1,123.06,54.15Z"/><path d="M100,175a75,75,0,1,1,75-75A75.08,75.08,0,0,1,100,175Zm0-144.23A69.23,69.23,0,1,0,169.23,100,69.31,69.31,0,0,0,100,30.77Z"/><path class="cls-2" d="M195.6,135.52v-67h1c5.1,0,10.21,0,15.31,0s10.21,0,15.32,0c17.07,0,24.84,12.44,24.84,24a24.12,24.12,0,0,1-6.22,16.46c-4.52,4.9-11,7.49-18.62,7.49H209.85v19.12Zm31.63-32.35a10.52,10.52,0,0,0,8.06-3.26A10.69,10.69,0,0,0,238,92.68c0-5.07-3.36-10.53-10.73-10.53H209.85v21Z"/><path d="M227.23,69.45c31.74,0,31.84,46,0,46H208.85v19.12H196.6v-65c10.21,0,20.42-.1,30.63-.1m-18.38,34.72h18.38c15.69,0,15.59-23,0-23H208.85v23m18.38-36.72c-5.11,0-10.3,0-15.33,0s-10.2,0-15.3,0h-2v69h16.25V117.4h16.38c7.94,0,14.64-2.7,19.35-7.81a25.9,25.9,0,0,0,0-34.3c-4.73-5.13-11.42-7.84-19.35-7.84Zm-16.38,15.7h16.38c6.68,0,9.73,4.94,9.73,9.53a9.73,9.73,0,0,1-2.41,6.56,9.57,9.57,0,0,1-7.32,2.93H210.85v-19Z"/><rect class="cls-2" x="279.79" y="68.55" width="14.16" height="66.97"/><path d="M293,69.55v65H280.79v-65H293m2-2H278.79v69H295v-69Z"/><polygon class="cls-2" points="369.74 135.52 353.65 111.89 337.56 135.52 322.3 135.52 322.3 133.83 344.63 101.66 322.95 70.42 322.95 68.55 337.94 68.55 353.65 91.97 369.36 68.55 384.35 68.55 384.35 70.42 362.57 101.66 385 133.83 385 135.52 369.74 135.52"/><path d="M383.35,69.55v.55l-22,31.56L384,134.15v.37H370.26l-16.61-24.41L337,134.52H323.3v-.37l22.55-32.49L324,70.1v-.55h13.46l16.24,24.22,16.24-24.22h13.46m2-2H368.83l-.6.88L353.65,90.18,339.07,68.43l-.6-.88H322v3.18l.35.51,21.12,30.42L321.65,133l-.35.51v3h16.79l.6-.88,15-22,15,22,.6.88H386v-3l-.36-.52-21.85-31.34L385,71.25l.36-.52V67.55Z"/><text class="cls-4" transform="translate(193.72 159.59)">*<tspan class="cls-5" x="13.9" y="0">R</tspan><tspan class="cls-6" x="30.34" y="0">e</tspan><tspan class="cls-7" x="45.96" y="0">c</tspan><tspan class="cls-6" x="60.4" y="0">omendado</tspan></text></svg>