<svg id="Camada_1" data-name="Camada 1" xmlns="http://www.w3.org/2000/svg" viewBox="0 0 200 200"><defs><style>.cls-1{fill:#fff;}.cls-2{fill:#ed1c24;}</style></defs><path class="cls-1" d="M100,158a72,72,0,1,1,72-72A72.08,72.08,0,0,1,100,158Z"/><path d="M124.54,97.58c-.91,4.33-3.46,6.48-7.71,6.43-3.44,6.86-4.68,7.39-11.86,5.18-.22-.07-.52-.31-.66-.23-3.07,1.64-6.82,2.68-9,5.12-4.65,5.12-8.47,11-12.68,16.52s-10.4,8-16.82,9.65c-3.93,1.05-7.53.19-9.93-3.55-2.75-4.31-5.61-8.55-8.23-12.93-1.87-3.14-1.15-6.16,2-7.82,6.75-3.51,9.43-9.61,11-16.41,2.21-9.33,4-18.81,8.6-27.35a11,11,0,0,1,3.06-3.55Q98,49.83,123.84,31.17a5.2,5.2,0,0,1,7.76,1.23q11.9,16,23.51,32.24c2.22,3.11,1.54,5.78-1.7,8.19-6.09,4.49-12.27,8.85-18.33,13.39a5,5,0,0,0-2,3C132.52,95.42,131.12,97,124.54,97.58ZM98.75,108.7l.53.55c4.92-3.56,9.86-7.11,14.77-10.68q18.8-13.65,37.6-27.32c2-1.44,3.44-3,1.71-5.44-4.87-6.83-9.84-13.59-14.91-20.56l-58,42.13,7.23,9.86c1.12-1.17,2-2,2.8-2.93,3.58-3.84,7-7.83,10.78-11.47,3.15-3,6.8-2.24,7.8,2a13.75,13.75,0,0,1-1,8.64C105.41,98.75,101.91,103.64,98.75,108.7Zm-22-26.83,57.8-42c-1.1-1.53-1.95-2.72-2.81-3.9-3.47-4.76-4-4.84-8.66-1.43q-22.5,16.34-45,32.67C69.58,73.34,69.57,73.33,76.71,81.87Z"/><path class="cls-2" d="M98.75,108.7c3.16-5.06,6.66-10,9.32-15.25a13.75,13.75,0,0,0,1-8.64c-1-4.21-4.65-5-7.8-2-3.77,3.64-7.2,7.63-10.78,11.47-.83.89-1.68,1.76-2.8,2.93l-7.23-9.86,58-42.13c5.07,7,10,13.73,14.91,20.56,1.73,2.42.27,4-1.71,5.44q-18.83,13.64-37.6,27.32c-4.91,3.57-9.85,7.12-14.77,10.68Z"/><path class="cls-2" d="M76.71,81.87c-7.14-8.54-7.13-8.53,1.33-14.66q22.5-16.32,45-32.67c4.69-3.41,5.19-3.33,8.66,1.43.86,1.18,1.71,2.37,2.81,3.9Z"/><path d="M100,161a75,75,0,1,1,75-75A75.08,75.08,0,0,1,100,161Zm0-144.23A69.23,69.23,0,1,0,169.23,86,69.31,69.31,0,0,0,100,16.77Z"/><path class="cls-1" d="M31.11,194C22.2,194,19,187.61,19,182.16a12.32,12.32,0,0,1,3.39-8.73,12,12,0,0,1,8.74-3.35,11.77,11.77,0,0,1,8.41,3.5l.73.72-4.08,3.94-.69-.68a6.16,6.16,0,0,0-4.37-1.7,6,6,0,0,0-4.49,1.68,6.44,6.44,0,0,0-1.74,4.6c0,1.44.5,6.12,6.23,6.12a6.75,6.75,0,0,0,4.57-1.84l.71-.71,4.11,4.16-.71.7A12.08,12.08,0,0,1,31.11,194Z"/><path d="M31.11,171.08a10.83,10.83,0,0,1,7.71,3.21l-2.64,2.55a7.21,7.21,0,0,0-5.07-2c-5.07,0-7.26,3.78-7.23,7.29s2,7.11,7.23,7.11a7.73,7.73,0,0,0,5.28-2.13l2.69,2.73a11,11,0,0,1-8,3.12c-7.8,0-11.1-5.37-11.13-10.83s3.54-11.07,11.13-11.07m0-2a13,13,0,0,0-9.45,3.64A13.32,13.32,0,0,0,18,182.16c0,6.38,4.1,12.82,13.13,12.82a13,13,0,0,0,9.38-3.7l1.42-1.4-1.4-1.43-2.7-2.73-1.42-1.43L35,185.72a5.74,5.74,0,0,1-3.86,1.54c-4.68,0-5.22-3.59-5.23-5.13a5.4,5.4,0,0,1,1.45-3.89,5.08,5.08,0,0,1,3.78-1.38,5.2,5.2,0,0,1,3.67,1.41l1.39,1.36,1.4-1.35,2.63-2.55,1.48-1.42-1.46-1.44a12.74,12.74,0,0,0-9.11-3.79Z"/><path class="cls-1" d="M63.31,193.5l-1.77-4H51.85l-1.8,4H43.57l10.32-23H59.5l10.32,23Zm-4.24-9.65-2.37-5.44-2.38,5.44Z"/><path d="M58.86,171.5l9.42,21H64l-1.77-4h-11l-1.8,4H45.12l9.42-21h4.32M52.8,184.85h7.8l-3.9-8.94-3.9,8.94m7.35-15.35H53.24l-.53,1.18-9.42,21L42,194.5h8.66l.54-1.17,1.26-2.79h8.4l1.24,2.78.53,1.18h8.7l-1.26-2.82-9.42-21-.53-1.18Zm-4.3,13.35.85-1.94.84,1.94Z"/><path class="cls-1" d="M90.41,193.5l-6.12-7H81.94v7H76v-23h1l5,0h5c5.89,0,8.56,4.15,8.56,8,0,3.44-1.62,6-4.52,7.11l5.57,6.28v1.65ZM87,180.91a2.37,2.37,0,1,0,0-4.72h-5v4.72Z"/><path d="M77,171.47c3.32,0,6.65,0,10,0,5,0,7.56,3.33,7.56,7,0,2.88-1.31,5.79-5.31,6.6l6.36,7.17v.27H90.86l-6.11-7H80.94v7H77v-21m4,10.44h6a3.37,3.37,0,1,0,0-6.72h-6v6.72m-4-12.44H75v25h8v-7h.9l5.52,6.33.59.69h7.62v-3l-.5-.57-4.45-5a8.23,8.23,0,0,0,3.9-7.42c0-4.42-3.28-8.92-9.54-9H82l-5,0Zm6,7.72h4c1.07,0,1.6.46,1.6,1.36,0,1.36-1.2,1.36-1.6,1.36h-4v-2.72Z"/><polygon class="cls-1" points="109.45 193.5 109.45 176.1 102.8 176.1 102.8 170.5 122.07 170.5 122.07 176.1 115.41 176.1 115.41 193.5 109.45 193.5"/><path d="M121.07,171.5v3.6h-6.66v17.4h-4V175.1h-6.66v-3.6h17.28m2-2H101.79v7.6h6.66v17.4h8V177.1h6.66v-7.6Z"/><path class="cls-1" d="M146.41,193.5l-1.78-4H135l-1.8,4h-6.48l10.16-22.66-3.72-2,.33-.82c1.11-2.78,2.84-3.36,4.1-3.36a5,5,0,0,1,1,.11,7,7,0,0,1,1.42.56,3.4,3.4,0,0,0,1,.37c.11,0,.28-.33.3-.37l.44-.87,4.18,2-.33.87a5.12,5.12,0,0,1-2.92,3.25l10.31,23Zm-4.24-9.65-2.38-5.44-2.37,5.44Zm-1.95-13.35a6.92,6.92,0,0,1-1.19-.57,3.37,3.37,0,0,0-1-.42c-.11,0-.3.23-.48.57l-.23.42Z"/><path d="M137.54,165.62a3.59,3.59,0,0,1,.78.09c.93.21,1.84.95,2.62.95.45,0,.85-.23,1.19-.92l2.46,1.17c-.74,2-1.93,2.8-3.13,2.8a2.69,2.69,0,0,1-.74-.1c-1-.27-1.85-1.1-2.68-1.1-.47,0-.93.28-1.37,1.1l-2.31-1.26c.63-1.55,1.61-2.73,3.18-2.73M142,171.5l9.42,21h-4.32l-1.77-4h-11l-1.8,4h-4.29l9.42-21H142m-6.06,13.35h7.8l-3.9-8.94-3.9,8.94m5.33-21.76-.68,1.37-.14-.07a7.81,7.81,0,0,0-1.63-.63,6,6,0,0,0-1.23-.14h0c-1.29,0-3.65.52-5,4l-.66,1.65,1.56.85,2.13,1.16-9.15,20.41-1.27,2.82h8.67l.53-1.17,1.27-2.79H144l1.24,2.78.53,1.18h8.7l-1.26-2.82L143.92,171a6.4,6.4,0,0,0,2.54-3.37l.66-1.72-1.67-.8L143,163.94l-1.77-.85ZM139,182.85l.84-1.94.85,1.94Z"/><path class="cls-1" d="M168.68,194c-8.15,0-11.8-5.94-11.8-11.83s3.7-12.07,11.8-12.07a11.5,11.5,0,0,1,8.39,3.28,12.27,12.27,0,0,1,3.38,8.77C180.39,188,176.72,194,168.68,194Zm0-18.3a5.55,5.55,0,0,0-4.15,1.6,6.75,6.75,0,0,0-1.75,4.9c0,1.45.58,6.17,5.9,6.17s5.85-4.73,5.87-6.19a6.82,6.82,0,0,0-1.75-4.92A5.57,5.57,0,0,0,168.68,175.68Z"/><path d="M168.68,171.08c7.23,0,10.83,5.55,10.77,11S176.06,193,168.68,193s-10.8-5.31-10.8-10.83,3.54-11.07,10.8-11.07m0,18.27c4.95,0,6.81-3.72,6.87-7.17s-1.92-7.5-6.87-7.5-7,4-6.9,7.53,1.95,7.14,6.9,7.14m0-20.27c-8.4,0-12.8,6.58-12.8,13.07,0,6.18,4,12.83,12.8,12.83s12.71-6.65,12.77-12.84a13.26,13.26,0,0,0-3.67-9.48,12.45,12.45,0,0,0-9.1-3.58Zm0,18.27c-4.3,0-4.86-3.63-4.9-5.19a5.87,5.87,0,0,1,1.46-4.18,5.21,5.21,0,0,1,6.84,0,5.93,5.93,0,0,1,1.47,4.21c0,1.56-.55,5.2-4.87,5.2Z"/></svg>