<svg id="Camada_1" data-name="Camada 1" xmlns="http://www.w3.org/2000/svg" viewBox="0 0 420 200"><defs><style>.cls-1{fill:#fff;}.cls-2{fill:#ed1c24;}</style></defs><path class="cls-1" d="M100,172a72,72,0,1,1,72-72A72.08,72.08,0,0,1,100,172Z"/><path d="M124.54,111.58c-.91,4.33-3.46,6.48-7.71,6.43-3.44,6.86-4.68,7.39-11.86,5.18-.22-.07-.52-.31-.66-.23-3.07,1.64-6.82,2.68-9,5.12-4.65,5.12-8.47,11-12.68,16.52s-10.4,8-16.82,9.65c-3.93,1.05-7.53.19-9.93-3.55-2.75-4.31-5.61-8.55-8.23-12.93-1.87-3.14-1.15-6.16,2-7.82,6.75-3.51,9.43-9.61,11-16.41,2.21-9.33,4-18.81,8.6-27.35a11,11,0,0,1,3.06-3.55Q98,63.83,123.84,45.17a5.2,5.2,0,0,1,7.76,1.23q11.9,16,23.51,32.24c2.22,3.11,1.54,5.78-1.7,8.19-6.09,4.49-12.27,8.85-18.33,13.39a5,5,0,0,0-2,3C132.52,109.42,131.12,111,124.54,111.58ZM98.75,122.7l.53.55c4.92-3.56,9.86-7.11,14.77-10.68q18.8-13.65,37.6-27.32c2-1.44,3.44-3,1.71-5.44-4.87-6.83-9.84-13.59-14.91-20.56l-58,42.13,7.23,9.86c1.12-1.17,2-2,2.8-2.93,3.58-3.84,7-7.83,10.78-11.47,3.15-3,6.8-2.24,7.8,2a13.75,13.75,0,0,1-1,8.64C105.41,112.75,101.91,117.64,98.75,122.7Zm-22-26.83,57.8-42c-1.1-1.53-1.95-2.72-2.81-3.9-3.47-4.76-4-4.84-8.66-1.43q-22.5,16.34-45,32.67C69.58,87.34,69.57,87.33,76.71,95.87Z"/><path class="cls-2" d="M98.75,122.7c3.16-5.06,6.66-10,9.32-15.25a13.75,13.75,0,0,0,1-8.64c-1-4.21-4.65-5-7.8-2-3.77,3.64-7.2,7.63-10.78,11.47-.83.89-1.68,1.76-2.8,2.93l-7.23-9.86,58-42.13c5.07,7,10,13.73,14.91,20.56,1.73,2.42.27,4-1.71,5.44q-18.83,13.64-37.6,27.32c-4.91,3.57-9.85,7.12-14.77,10.68Z"/><path class="cls-2" d="M76.71,95.87c-7.14-8.54-7.13-8.53,1.33-14.66q22.5-16.32,45-32.67c4.69-3.41,5.19-3.33,8.66,1.43.86,1.18,1.71,2.37,2.81,3.9Z"/><path d="M100,175a75,75,0,1,1,75-75A75.08,75.08,0,0,1,100,175Zm0-144.23A69.23,69.23,0,1,0,169.23,100,69.31,69.31,0,0,0,100,30.77Z"/><path class="cls-2" d="M217.47,118c-9.91,0-13.46-7.08-13.49-13.15a13.67,13.67,0,0,1,3.77-9.71,13.3,13.3,0,0,1,9.72-3.72,13.09,13.09,0,0,1,9.36,3.89l.73.72-4.4,4.25-.7-.68a7,7,0,0,0-5-1.94,6.94,6.94,0,0,0-5.13,1.92,7.41,7.41,0,0,0-2,5.25c0,3.38,1.92,7,7.12,7a7.72,7.72,0,0,0,5.22-2.09l.71-.71,4.44,4.49-.71.7A13.41,13.41,0,0,1,217.47,118Z"/><path d="M217.47,92.4a12.14,12.14,0,0,1,8.65,3.6l-3,2.86a8.13,8.13,0,0,0-5.69-2.22c-5.69,0-8.15,4.24-8.12,8.18s2.29,8,8.12,8a8.69,8.69,0,0,0,5.93-2.39l3,3.07a12.44,12.44,0,0,1-9,3.5c-8.76,0-12.46-6-12.49-12.16s4-12.42,12.49-12.42m0-2a14.27,14.27,0,0,0-10.42,4A14.64,14.64,0,0,0,203,104.83c0,7,4.53,14.15,14.49,14.15a14.39,14.39,0,0,0,10.36-4.08l1.43-1.4-1.41-1.43-3-3.06-1.42-1.43L222,109a6.64,6.64,0,0,1-4.51,1.8c-5.47,0-6.1-4.19-6.12-6a6.43,6.43,0,0,1,1.7-4.55,6,6,0,0,1,4.42-1.62,6.08,6.08,0,0,1,4.29,1.65l1.39,1.36,1.4-1.35,3-2.86L229,96l-1.46-1.44a14.05,14.05,0,0,0-10.06-4.18Z"/><path class="cls-2" d="M253.7,117.44l-2-4.44h-11l-2,4.44h-7l11.47-25.57h6.15l11.47,25.57Zm-4.65-10.59-2.85-6.53-2.85,6.53Z"/><path d="M248.62,92.87l10.57,23.57h-4.85l-2-4.44H240l-2,4.44H233.2l10.57-23.57h4.85m-6.8,15h8.75l-4.37-10-4.38,10m8.1-17h-7.44L242,92.05l-10.58,23.57-1.26,2.82h9.19l.53-1.17,1.49-3.27h9.74l1.46,3.26.53,1.18h9.23L261,115.62,250.45,92.05l-.53-1.18Zm-5,15,1.33-3,1.32,3Z"/><path class="cls-2" d="M284.1,117.44l-6.87-7.88h-2.82v7.88H268V91.83h1l5.61,0,5.6,0c6.52,0,9.49,4.59,9.49,8.81,0,3.87-1.86,6.69-5.16,7.93l6.34,7.15v1.68Zm-3.93-13.89c2.83,0,3.05-2.12,3.05-2.77A2.7,2.7,0,0,0,280.17,98h-5.76v5.54Z"/><path d="M269,92.83c3.74,0,7.48,0,11.21,0,5.56,0,8.49,3.74,8.49,7.81,0,3.23-1.48,6.5-6,7.41l7.14,8v.3h-5.29l-6.87-7.88h-4.27v7.88H269V92.83m4.45,11.72h6.76a3.78,3.78,0,1,0,0-7.54h-6.76v7.54M269,90.83h-2v27.61h8.45v-7.88h1.36l6.27,7.2.6.68h8.2v-3.06l-.5-.57-5.2-5.86a9,9,0,0,0,4.52-8.27c0-4.69-3.28-9.77-10.47-9.81l-5.61,0-5.62,0ZM275.41,99h4.76c1.78,0,2.05,1.11,2.05,1.77,0,.81-.36,1.77-2.05,1.77h-4.76V99Z"/><polygon class="cls-2" points="305.54 117.44 305.54 97.91 298.07 97.91 298.07 91.87 319.46 91.87 319.46 97.91 311.99 97.91 311.99 117.44 305.54 117.44"/><path d="M318.46,92.87v4H311v19.53h-4.45V96.91h-7.47v-4h19.39m2-2H297.07v8h7.47v19.53H313V98.91h7.47v-8Z"/><path class="cls-2" d="M347,117.44,345,113H334l-2,4.44h-7l11.39-25.37-4.19-2.29.32-.82c1.23-3,3.12-3.69,4.5-3.69a5.2,5.2,0,0,1,1.09.12,7,7,0,0,1,1.57.62,3.73,3.73,0,0,0,1.16.43c.05,0,.2,0,.44-.48l.44-.88,4.48,2.13-.33.86c-.91,2.41-2.54,3.79-4.45,3.79a4.09,4.09,0,0,1-1.09-.15,7.23,7.23,0,0,1-1.59-.71,3.37,3.37,0,0,0-1.16-.49c-.24,0-.51.44-.65.71l-.35.65h6L354,117.44Zm-4.65-10.59-2.85-6.53-2.85,6.53Z"/><path d="M337,86.27a4,4,0,0,1,.88.1c1,.24,2.06,1.07,2.94,1.07.5,0,1-.26,1.34-1l2.76,1.32c-.84,2.21-2.17,3.14-3.53,3.14a3.3,3.3,0,0,1-.82-.11c-1.09-.3-2.08-1.24-3-1.24-.53,0-1,.31-1.53,1.24l-2.6-1.42c.7-1.74,1.8-3.06,3.57-3.06m4.95,6.6,10.58,23.57h-4.85l-2-4.44H333.32l-2,4.44h-4.81l10.57-23.57h4.85m-6.8,15h8.76l-4.38-10-4.38,10m6.09-24.1-.76,1.54-.38-.18a8,8,0,0,0-1.77-.69,6.38,6.38,0,0,0-1.33-.15h0c-1.69,0-4,.75-5.42,4.32l-.66,1.65,1.56.85L335,92.5h0l-10.37,23.11-1.26,2.82h9.19l.54-1.17L334.6,114h9.74l1.46,3.26.53,1.18h9.24l-1.27-2.82L343.79,92.2a7,7,0,0,0,2.95-3.77l.65-1.73-1.66-.79L343,84.6l-1.77-.85Zm-3,22.1,1.33-3,1.32,3Z"/><path class="cls-2" d="M371.91,118c-9.07,0-13.12-6.61-13.12-13.16s4.1-13.42,13.12-13.42A12.8,12.8,0,0,1,381.24,95,13.7,13.7,0,0,1,385,104.8C384.93,111.36,380.85,118,371.91,118Zm0-20.54a6.33,6.33,0,0,0-4.75,1.83,7.71,7.71,0,0,0-2,5.59c0,1.66.66,7,6.75,7s6.68-5.41,6.71-7.07a7.77,7.77,0,0,0-2-5.61A6.32,6.32,0,0,0,371.91,97.44Z"/><path d="M371.91,92.4c8.12,0,12.16,6.23,12.09,12.39S380.19,117,371.91,117s-12.12-6-12.12-12.16,4-12.42,12.12-12.42m0,20.51c5.56,0,7.64-4.18,7.71-8s-2.15-8.42-7.71-8.42-7.85,4.48-7.75,8.45,2.19,8,7.75,8m0-22.51c-9.27,0-14.12,7.25-14.12,14.42,0,6.82,4.42,14.16,14.12,14.16s14-7.12,14.09-14.17A14.69,14.69,0,0,0,382,94.34a13.74,13.74,0,0,0-10-3.94Zm0,20.51c-5,0-5.7-4.25-5.75-6.07a6.79,6.79,0,0,1,1.71-4.87,6.09,6.09,0,0,1,8,0,6.81,6.81,0,0,1,1.72,4.89c0,1.83-.65,6.09-5.71,6.09Z"/></svg>