<svg id="Camada_1" data-name="Camada 1" xmlns="http://www.w3.org/2000/svg" viewBox="0 0 200 200"><defs><style>.cls-1{fill:#fff;}.cls-2{fill:#4bb7a9;}.cls-3{fill:#4bb8a9;}</style></defs><path class="cls-1" d="M100,158.5A72.5,72.5,0,1,1,172.5,86,72.58,72.58,0,0,1,100,158.5Z"/><path d="M149,96c.13,3-1.06,5.42-2.75,7.81-7.75,11-10.82,14.73-20.37,24.21a73.78,73.78,0,0,1-9.4,8.48c-4.87,3.41-10.6,4.25-16.48,3.57s-11.83-1.51-17.72-2.38a2.79,2.79,0,0,1-1.89-1.4c-3.64-9.81-7.19-19.65-10.75-29.49a4.3,4.3,0,0,1-.15-.75c9.94-5,20.13-7.78,31.14-4.76a11.7,11.7,0,0,0,8.43-.66,48.27,48.27,0,0,1,6.1-2.22,10.45,10.45,0,0,1,3.49-.56c3.84.17,5.67,3.34,4,6.78-1.81,3.67-5.13,5.51-8.74,6.9-1.74.67-3.57,1.07-5.35,1.66-1.61.53-2.61,1.58-2,3.38A2.36,2.36,0,0,0,110,118a104.16,104.16,0,0,0,12.16-6c3.36-2.1,10.11-12.86,13.67-16.58,4.46-4.64,7.84-6.53,12.24-1.9Z"/><path d="M53.46,110.81a2.72,2.72,0,0,1,1.66-3.5l11.12-3.88h0a2.72,2.72,0,0,1,3.47,1.64l12,33.07a2.72,2.72,0,0,1-1.64,3.49l-11.11,4a2.72,2.72,0,0,1-3.5-1.63Z"/><path d="M136.25,48c-1.55-1.6-3.14-3.18-4.67-4.7-.88-.87-1.75-1.75-2.62-2.62a7.26,7.26,0,0,0-2.11-1.48l-.2-.35a6.46,6.46,0,0,0-1.2-1.66l-3.53-3.54c-3.09-3.09-6.27-6.28-9.47-9.39a15.09,15.09,0,0,0-10-4.19c-.29,0-.58,0-.86,0h0A16.19,16.19,0,0,0,89.93,25L78.07,36.84a6.69,6.69,0,0,0-1.76,2.42,7.54,7.54,0,0,0-2.24,1.56c-2.36,2.38-4.76,4.78-7,7a16.73,16.73,0,0,0-4.16,6.83c-.12.37-.2.7-.26,1,0,0-.47.76-.58,3.71a14.73,14.73,0,0,0,1.14,5.78A16.38,16.38,0,0,0,67,71l.42.41c2.19,2.2,4.46,4.46,6.68,6.7a7.64,7.64,0,0,0,1.72,1.3l1.21,1.5,0,0a8.53,8.53,0,0,0,.67.76l2.14,2.14Q85,89,90.17,94.15A16.1,16.1,0,0,0,98,98.45l.44.09.62.39h4.75l.57-.33a16.75,16.75,0,0,0,9.12-4.93c2.52-2.54,5.11-5.12,7.61-7.62L125,82.16a7.26,7.26,0,0,0,1.76-2.38A7.37,7.37,0,0,0,129,78.16l2-2c1.7-1.69,3.45-3.44,5.17-5.19A16.13,16.13,0,0,0,136.25,48Z"/><path class="cls-2" d="M65.26,57.93a8.82,8.82,0,0,0,.47-1.67,11.49,11.49,0,0,1,2.89-4.74c2.56-2.56,5.13-5.12,7.68-7.69a1.24,1.24,0,0,1,1-.42c1.28,0,2.56,0,3.84,0a7.44,7.44,0,0,1,5.53,2.3l10.4,10.4c2.55,2.54,5.59,2.55,8.12,0,3.42-3.41,6.86-6.81,10.24-10.25a8.06,8.06,0,0,1,6-2.54c1.5,0,3,0,4.48,0a1.14,1.14,0,0,1,.87.37c2.64,2.65,5.32,5.27,7.93,7.95a11,11,0,0,1-.07,15.69c-2.59,2.63-5.22,5.23-7.83,7.84-.16.16-.3.37-.58.36-2,0-4,.06-6-.07A7.45,7.45,0,0,1,115.4,73L105.15,62.75c-2.46-2.47-5.6-2.46-8.09,0C93.64,66.18,90.21,69.58,86.82,73a8.06,8.06,0,0,1-6,2.5c-1.13,0-2.27,0-3.41,0a1.28,1.28,0,0,1-1-.41q-3.87-3.9-7.78-7.79a11.12,11.12,0,0,1-3.09-5.64c0-.21,0-.49-.23-.63Z"/><path class="cls-3" d="M100.78,95.87a4.65,4.65,0,0,0-1.55-.35,11,11,0,0,1-5.36-2.91L80.31,79.06c-.08-.08-.14-.18-.28-.34a20.11,20.11,0,0,0,3.44-.25A11,11,0,0,0,89,75.4q5.13-5.16,10.29-10.3c1.34-1.34,2.38-1.34,3.71,0,3.35,3.35,6.73,6.66,10,10.06a11,11,0,0,0,8.69,3.58c.44,0,.88,0,1.35,0a1.39,1.39,0,0,1-.52.68c-4.23,4.24-8.48,8.46-12.69,12.72a11.55,11.55,0,0,1-7.41,3.62c-.08,0-.16.08-.23.13Z"/><path class="cls-2" d="M123.06,40.15a22.14,22.14,0,0,0-4.19.23,11,11,0,0,0-5.56,3.09l-10.4,10.4c-1.27,1.27-2.29,1.27-3.58,0-3.33-3.33-6.7-6.63-10-10a11.3,11.3,0,0,0-8.75-3.67c-.15,0-.33.06-.47-.07,0-.23.24-.34.38-.48L93.62,26.52a10.91,10.91,0,0,1,8.58-3.37,9.88,9.88,0,0,1,6.57,2.67c4.76,4.65,9.44,9.38,14.15,14.08A1.81,1.81,0,0,1,123.06,40.15Z"/><path d="M100,161a75,75,0,1,1,75-75A75.08,75.08,0,0,1,100,161Zm0-144.23A69.23,69.23,0,1,0,169.23,86,69.31,69.31,0,0,0,100,16.77Z"/><path class="cls-1" d="M69,193.5v-23H75l5,0a8.29,8.29,0,0,1,8.7,8.43,8.47,8.47,0,0,1-2.19,5.78,8.57,8.57,0,0,1-6.51,2.64H75v6.18Zm10.9-11.81a2.75,2.75,0,0,0,2.1-.83,2.81,2.81,0,0,0,.69-1.88,2.62,2.62,0,0,0-2.79-2.73H75v5.44Z"/><path d="M79.92,171.47c10.25,0,10.29,14.85,0,14.85H74v6.18H70v-21l9.9,0M74,182.69h5.94c5.07,0,5-7.44,0-7.44H74v7.44m5.94-13.22-5,0H68v25h8v-6.18h3.94a9.24,9.24,0,0,0,9.7-9.42,9.26,9.26,0,0,0-9.7-9.43ZM76,177.25h3.94A1.63,1.63,0,0,1,81.71,179a1.82,1.82,0,0,1-.43,1.21,1.76,1.76,0,0,1-1.36.5H76v-3.44Z"/><rect class="cls-1" x="96.23" y="170.5" width="5.93" height="23"/><path d="M101.16,171.5v21H97.23v-21h3.93m2-2H95.23v25h7.93v-25Z"/><polygon class="cls-1" points="125.61 193.5 120.77 186.39 115.93 193.5 109.97 193.5 109.97 192.07 117.04 181.88 110.17 171.99 110.17 170.5 116.06 170.5 120.77 177.53 125.49 170.5 131.37 170.5 131.37 172 124.48 181.88 131.58 192.06 131.58 193.5 125.61 193.5"/><path d="M130.37,171.5v.18l-7.11,10.2,7.32,10.5v.12h-4.44l-5.37-7.89-5.37,7.89H111v-.12l7.29-10.5-7.08-10.2v-.18h4.35l5.25,7.83L126,171.5h4.35m2-2H125l-.6.89-3.59,5.35-3.58-5.35-.6-.89h-7.42v2.81l.36.51,6.29,9.06-6.5,9.36-.36.51v2.75h7.5l.6-.87,3.71-5.47,3.72,5.47.6.87h7.49v-2.75l-.36-.51-6.52-9.36,6.31-9.06.36-.51V169.5Z"/></svg>